<svg class="main-svg" xmlns="http://www.w3.org/2000/svg" xmlns:xlink="http://www.w3.org/1999/xlink" width="1000" height="550" style="" viewBox="0 0 1000 550"><rect x="0" y="0" width="1000" height="550" style="fill: rgb(255, 255, 255); fill-opacity: 1;"/><defs id="defs-6b4978"><g class="clips"><clipPath id="clip6b4978xyplot" class="plotclip"><rect width="643" height="370"/></clipPath><clipPath class="axesclip" id="clip6b4978x"><rect x="84" y="0" width="643" height="550"/></clipPath><clipPath class="axesclip" id="clip6b4978y"><rect x="0" y="100" width="1000" height="370"/></clipPath><clipPath class="axesclip" id="clip6b4978xy"><rect x="84" y="100" width="643" height="370"/></clipPath></g><g class="gradients"/><g class="patterns"/></defs><g class="bglayer"/><g class="layer-below"><g class="imagelayer"/><g class="shapelayer"/></g><g class="cartesianlayer"><g class="subplot xy"><g class="layer-subplot"><g class="shapelayer"/><g class="imagelayer"/></g><g class="minor-gridlayer"><g class="x"/><g class="y"/></g><g class="gridlayer"><g class="x"><path class="xgrid crisp" transform="translate(105.43,0)" d="M0,100v370" style="stroke: rgb(255, 255, 255); stroke-opacity: 1; stroke-width: 1px;"/><path class="xgrid crisp" transform="translate(141.16,0)" d="M0,100v370" style="stroke: rgb(255, 255, 255); stroke-opacity: 1; stroke-width: 1px;"/><path class="xgrid crisp" transform="translate(176.88,0)" d="M0,100v370" style="stroke: rgb(255, 255, 255); stroke-opacity: 1; stroke-width: 1px;"/><path class="xgrid crisp" transform="translate(212.6,0)" d="M0,100v370" style="stroke: rgb(255, 255, 255); stroke-opacity: 1; stroke-width: 1px;"/><path class="xgrid crisp" transform="translate(248.32,0)" d="M0,100v370" style="stroke: rgb(255, 255, 255); stroke-opacity: 1; stroke-width: 1px;"/><path class="xgrid crisp" transform="translate(284.03999999999996,0)" d="M0,100v370" style="stroke: rgb(255, 255, 255); stroke-opacity: 1; stroke-width: 1px;"/><path class="xgrid crisp" transform="translate(319.77,0)" d="M0,100v370" style="stroke: rgb(255, 255, 255); stroke-opacity: 1; stroke-width: 1px;"/><path class="xgrid crisp" transform="translate(355.49,0)" d="M0,100v370" style="stroke: rgb(255, 255, 255); stroke-opacity: 1; stroke-width: 1px;"/><path class="xgrid crisp" transform="translate(391.21,0)" d="M0,100v370" style="stroke: rgb(255, 255, 255); stroke-opacity: 1; stroke-width: 1px;"/><path class="xgrid crisp" transform="translate(426.93,0)" d="M0,100v370" style="stroke: rgb(255, 255, 255); stroke-opacity: 1; stroke-width: 1px;"/><path class="xgrid crisp" transform="translate(462.66,0)" d="M0,100v370" style="stroke: rgb(255, 255, 255); stroke-opacity: 1; stroke-width: 1px;"/><path class="xgrid crisp" transform="translate(498.38,0)" d="M0,100v370" style="stroke: rgb(255, 255, 255); stroke-opacity: 1; stroke-width: 1px;"/><path class="xgrid crisp" transform="translate(534.1,0)" d="M0,100v370" style="stroke: rgb(255, 255, 255); stroke-opacity: 1; stroke-width: 1px;"/><path class="xgrid crisp" transform="translate(569.8199999999999,0)" d="M0,100v370" style="stroke: rgb(255, 255, 255); stroke-opacity: 1; stroke-width: 1px;"/><path class="xgrid crisp" transform="translate(605.54,0)" d="M0,100v370" style="stroke: rgb(255, 255, 255); stroke-opacity: 1; stroke-width: 1px;"/><path class="xgrid crisp" transform="translate(641.27,0)" d="M0,100v370" style="stroke: rgb(255, 255, 255); stroke-opacity: 1; stroke-width: 1px;"/><path class="xgrid crisp" transform="translate(676.99,0)" d="M0,100v370" style="stroke: rgb(255, 255, 255); stroke-opacity: 1; stroke-width: 1px;"/><path class="xgrid crisp" transform="translate(712.71,0)" d="M0,100v370" style="stroke: rgb(255, 255, 255); stroke-opacity: 1; stroke-width: 1px;"/></g><g class="y"><path class="ygrid crisp" transform="translate(0,448.38)" d="M84,0h643" style="stroke: rgb(255, 255, 255); stroke-opacity: 1; stroke-width: 1px;"/><path class="ygrid crisp" transform="translate(0,350.19)" d="M84,0h643" style="stroke: rgb(255, 255, 255); stroke-opacity: 1; stroke-width: 1px;"/><path class="ygrid crisp" transform="translate(0,252.01)" d="M84,0h643" style="stroke: rgb(255, 255, 255); stroke-opacity: 1; stroke-width: 1px;"/><path class="ygrid crisp" transform="translate(0,153.82999999999998)" d="M84,0h643" style="stroke: rgb(255, 255, 255); stroke-opacity: 1; stroke-width: 1px;"/></g></g><g class="zerolinelayer"/><g class="layer-between"><g class="shapelayer"/><g class="imagelayer"/></g><path class="xlines-below"/><path class="ylines-below"/><g class="overlines-below"/><g class="xaxislayer-below"/><g class="yaxislayer-below"/><g class="overaxes-below"/><g class="overplot"><g class="xy" transform="translate(84,100)" clip-path="url(#clip6b4978xyplot)"><g class="scatterlayer mlayer"><g class="trace scatter trace97c946" style="stroke-miterlimit: 2;"><g class="fills"><g><path class="js-fill" d="M643,3885L0,3885L0,21.63L7.14,79.01L14.29,87.03L21.43,110.29L28.58,125.55L35.72,149.12L42.87,147.56L50.01,175.24L57.16,175.24L64.3,179.08L71.44,212.86L78.59,212.86L85.73,201.95L92.88,225.13L100.02,227.57L107.17,230.15L114.31,227.57L121.46,254.68L128.6,259.71L142.89,250.19L150.03,250.19L157.18,265.4L164.32,259.71L171.47,289.26L178.61,301.53L185.76,289.26L192.9,271.97L200.04,289.26L207.19,318.82L214.33,301.53L221.48,289.26L235.77,348.38L242.91,318.82L250.06,348.38L257.2,348.38L278.63,348.38L285.78,318.82L292.92,348.38L314.36,318.82L328.64,348.38L335.79,318.82L357.22,348.38L364.37,318.82L385.8,348.38L392.94,348.38L414.38,348.38L428.67,318.82L557.27,348.38L600.13,348.38L643,348.38" style="fill: rgb(158, 158, 158); fill-opacity: 0.2; stroke-width: 0;"/></g></g><g class="errorbars"/><g class="lines"><path class="js-line" d="M0,21.63L7.14,79.01L14.29,87.03L21.43,110.29L28.58,125.55L35.72,149.12L42.87,147.56L50.01,175.24L57.16,175.24L64.3,179.08L71.44,212.86L78.59,212.86L85.73,201.95L92.88,225.13L100.02,227.57L107.17,230.15L114.31,227.57L121.46,254.68L128.6,259.71L142.89,250.19L150.03,250.19L157.18,265.4L164.32,259.71L171.47,289.26L178.61,301.53L185.76,289.26L192.9,271.97L200.04,289.26L207.19,318.82L214.33,301.53L221.48,289.26L235.77,348.38L242.91,318.82L250.06,348.38L257.2,348.38L278.63,348.38L285.78,318.82L292.92,348.38L314.36,318.82L328.64,348.38L335.79,318.82L357.22,348.38L364.37,318.82L385.8,348.38L392.94,348.38L414.38,348.38L428.67,318.82L557.27,348.38L600.13,348.38L643,348.38" style="vector-effect: none; fill: none; stroke: rgb(158, 158, 158); stroke-opacity: 1; stroke-width: 2px; opacity: 1;"/></g><g class="points"><path class="point" transform="translate(0,21.63)" d="M2.5,0A2.5,2.5 0 1,1 0,-2.5A2.5,2.5 0 0,1 2.5,0Z" style="opacity: 1; stroke-width: 0px; fill: rgb(158, 158, 158); fill-opacity: 1;"/><path class="point" transform="translate(7.14,79.01)" d="M2.5,0A2.5,2.5 0 1,1 0,-2.5A2.5,2.5 0 0,1 2.5,0Z" style="opacity: 1; stroke-width: 0px; fill: rgb(158, 158, 158); fill-opacity: 1;"/><path class="point" transform="translate(14.29,87.03)" d="M2.5,0A2.5,2.5 0 1,1 0,-2.5A2.5,2.5 0 0,1 2.5,0Z" style="opacity: 1; stroke-width: 0px; fill: rgb(158, 158, 158); fill-opacity: 1;"/><path class="point" transform="translate(21.43,110.29)" d="M2.5,0A2.5,2.5 0 1,1 0,-2.5A2.5,2.5 0 0,1 2.5,0Z" style="opacity: 1; stroke-width: 0px; fill: rgb(158, 158, 158); fill-opacity: 1;"/><path class="point" transform="translate(28.58,125.55)" d="M2.5,0A2.5,2.5 0 1,1 0,-2.5A2.5,2.5 0 0,1 2.5,0Z" style="opacity: 1; stroke-width: 0px; fill: rgb(158, 158, 158); fill-opacity: 1;"/><path class="point" transform="translate(35.72,149.12)" d="M2.5,0A2.5,2.5 0 1,1 0,-2.5A2.5,2.5 0 0,1 2.5,0Z" style="opacity: 1; stroke-width: 0px; fill: rgb(158, 158, 158); fill-opacity: 1;"/><path class="point" transform="translate(42.87,147.56)" d="M2.5,0A2.5,2.5 0 1,1 0,-2.5A2.5,2.5 0 0,1 2.5,0Z" style="opacity: 1; stroke-width: 0px; fill: rgb(158, 158, 158); fill-opacity: 1;"/><path class="point" transform="translate(50.01,175.24)" d="M2.5,0A2.5,2.5 0 1,1 0,-2.5A2.5,2.5 0 0,1 2.5,0Z" style="opacity: 1; stroke-width: 0px; fill: rgb(158, 158, 158); fill-opacity: 1;"/><path class="point" transform="translate(57.16,175.24)" d="M2.5,0A2.5,2.5 0 1,1 0,-2.5A2.5,2.5 0 0,1 2.5,0Z" style="opacity: 1; stroke-width: 0px; fill: rgb(158, 158, 158); fill-opacity: 1;"/><path class="point" transform="translate(64.3,179.08)" d="M2.5,0A2.5,2.5 0 1,1 0,-2.5A2.5,2.5 0 0,1 2.5,0Z" style="opacity: 1; stroke-width: 0px; fill: rgb(158, 158, 158); fill-opacity: 1;"/><path class="point" transform="translate(71.44,212.86)" d="M2.5,0A2.5,2.5 0 1,1 0,-2.5A2.5,2.5 0 0,1 2.5,0Z" style="opacity: 1; stroke-width: 0px; fill: rgb(158, 158, 158); fill-opacity: 1;"/><path class="point" transform="translate(78.59,212.86)" d="M2.5,0A2.5,2.5 0 1,1 0,-2.5A2.5,2.5 0 0,1 2.5,0Z" style="opacity: 1; stroke-width: 0px; fill: rgb(158, 158, 158); fill-opacity: 1;"/><path class="point" transform="translate(85.73,201.95)" d="M2.5,0A2.5,2.5 0 1,1 0,-2.5A2.5,2.5 0 0,1 2.5,0Z" style="opacity: 1; stroke-width: 0px; fill: rgb(158, 158, 158); fill-opacity: 1;"/><path class="point" transform="translate(92.88,225.13)" d="M2.5,0A2.5,2.5 0 1,1 0,-2.5A2.5,2.5 0 0,1 2.5,0Z" style="opacity: 1; stroke-width: 0px; fill: rgb(158, 158, 158); fill-opacity: 1;"/><path class="point" transform="translate(100.02,227.57)" d="M2.5,0A2.5,2.5 0 1,1 0,-2.5A2.5,2.5 0 0,1 2.5,0Z" style="opacity: 1; stroke-width: 0px; fill: rgb(158, 158, 158); fill-opacity: 1;"/><path class="point" transform="translate(107.17,230.15)" d="M2.5,0A2.5,2.5 0 1,1 0,-2.5A2.5,2.5 0 0,1 2.5,0Z" style="opacity: 1; stroke-width: 0px; fill: rgb(158, 158, 158); fill-opacity: 1;"/><path class="point" transform="translate(114.31,227.57)" d="M2.5,0A2.5,2.5 0 1,1 0,-2.5A2.5,2.5 0 0,1 2.5,0Z" style="opacity: 1; stroke-width: 0px; fill: rgb(158, 158, 158); fill-opacity: 1;"/><path class="point" transform="translate(121.46,254.68)" d="M2.5,0A2.5,2.5 0 1,1 0,-2.5A2.5,2.5 0 0,1 2.5,0Z" style="opacity: 1; stroke-width: 0px; fill: rgb(158, 158, 158); fill-opacity: 1;"/><path class="point" transform="translate(128.6,259.71)" d="M2.5,0A2.5,2.5 0 1,1 0,-2.5A2.5,2.5 0 0,1 2.5,0Z" style="opacity: 1; stroke-width: 0px; fill: rgb(158, 158, 158); fill-opacity: 1;"/><path class="point" transform="translate(135.74,254.68)" d="M2.5,0A2.5,2.5 0 1,1 0,-2.5A2.5,2.5 0 0,1 2.5,0Z" style="opacity: 1; stroke-width: 0px; fill: rgb(158, 158, 158); fill-opacity: 1;"/><path class="point" transform="translate(142.89,250.19)" d="M2.5,0A2.5,2.5 0 1,1 0,-2.5A2.5,2.5 0 0,1 2.5,0Z" style="opacity: 1; stroke-width: 0px; fill: rgb(158, 158, 158); fill-opacity: 1;"/><path class="point" transform="translate(150.03,250.19)" d="M2.5,0A2.5,2.5 0 1,1 0,-2.5A2.5,2.5 0 0,1 2.5,0Z" style="opacity: 1; stroke-width: 0px; fill: rgb(158, 158, 158); fill-opacity: 1;"/><path class="point" transform="translate(157.18,265.4)" d="M2.5,0A2.5,2.5 0 1,1 0,-2.5A2.5,2.5 0 0,1 2.5,0Z" style="opacity: 1; stroke-width: 0px; fill: rgb(158, 158, 158); fill-opacity: 1;"/><path class="point" transform="translate(164.32,259.71)" d="M2.5,0A2.5,2.5 0 1,1 0,-2.5A2.5,2.5 0 0,1 2.5,0Z" style="opacity: 1; stroke-width: 0px; fill: rgb(158, 158, 158); fill-opacity: 1;"/><path class="point" transform="translate(171.47,289.26)" d="M2.5,0A2.5,2.5 0 1,1 0,-2.5A2.5,2.5 0 0,1 2.5,0Z" style="opacity: 1; stroke-width: 0px; fill: rgb(158, 158, 158); fill-opacity: 1;"/><path class="point" transform="translate(178.61,301.53)" d="M2.5,0A2.5,2.5 0 1,1 0,-2.5A2.5,2.5 0 0,1 2.5,0Z" style="opacity: 1; stroke-width: 0px; fill: rgb(158, 158, 158); fill-opacity: 1;"/><path class="point" transform="translate(185.76,289.26)" d="M2.5,0A2.5,2.5 0 1,1 0,-2.5A2.5,2.5 0 0,1 2.5,0Z" style="opacity: 1; stroke-width: 0px; fill: rgb(158, 158, 158); fill-opacity: 1;"/><path class="point" transform="translate(192.9,271.97)" d="M2.5,0A2.5,2.5 0 1,1 0,-2.5A2.5,2.5 0 0,1 2.5,0Z" style="opacity: 1; stroke-width: 0px; fill: rgb(158, 158, 158); fill-opacity: 1;"/><path class="point" transform="translate(200.04,289.26)" d="M2.5,0A2.5,2.5 0 1,1 0,-2.5A2.5,2.5 0 0,1 2.5,0Z" style="opacity: 1; stroke-width: 0px; fill: rgb(158, 158, 158); fill-opacity: 1;"/><path class="point" transform="translate(207.19,318.82)" d="M2.5,0A2.5,2.5 0 1,1 0,-2.5A2.5,2.5 0 0,1 2.5,0Z" style="opacity: 1; stroke-width: 0px; fill: rgb(158, 158, 158); fill-opacity: 1;"/><path class="point" transform="translate(214.33,301.53)" d="M2.5,0A2.5,2.5 0 1,1 0,-2.5A2.5,2.5 0 0,1 2.5,0Z" style="opacity: 1; stroke-width: 0px; fill: rgb(158, 158, 158); fill-opacity: 1;"/><path class="point" transform="translate(221.48,289.26)" d="M2.5,0A2.5,2.5 0 1,1 0,-2.5A2.5,2.5 0 0,1 2.5,0Z" style="opacity: 1; stroke-width: 0px; fill: rgb(158, 158, 158); fill-opacity: 1;"/><path class="point" transform="translate(228.62,318.82)" d="M2.5,0A2.5,2.5 0 1,1 0,-2.5A2.5,2.5 0 0,1 2.5,0Z" style="opacity: 1; stroke-width: 0px; fill: rgb(158, 158, 158); fill-opacity: 1;"/><path class="point" transform="translate(235.77,348.38)" d="M2.5,0A2.5,2.5 0 1,1 0,-2.5A2.5,2.5 0 0,1 2.5,0Z" style="opacity: 1; stroke-width: 0px; fill: rgb(158, 158, 158); fill-opacity: 1;"/><path class="point" transform="translate(242.91,318.82)" d="M2.5,0A2.5,2.5 0 1,1 0,-2.5A2.5,2.5 0 0,1 2.5,0Z" style="opacity: 1; stroke-width: 0px; fill: rgb(158, 158, 158); fill-opacity: 1;"/><path class="point" transform="translate(250.06,348.38)" d="M2.5,0A2.5,2.5 0 1,1 0,-2.5A2.5,2.5 0 0,1 2.5,0Z" style="opacity: 1; stroke-width: 0px; fill: rgb(158, 158, 158); fill-opacity: 1;"/><path class="point" transform="translate(257.2,348.38)" d="M2.5,0A2.5,2.5 0 1,1 0,-2.5A2.5,2.5 0 0,1 2.5,0Z" style="opacity: 1; stroke-width: 0px; fill: rgb(158, 158, 158); fill-opacity: 1;"/><path class="point" transform="translate(271.49,348.38)" d="M2.5,0A2.5,2.5 0 1,1 0,-2.5A2.5,2.5 0 0,1 2.5,0Z" style="opacity: 1; stroke-width: 0px; fill: rgb(158, 158, 158); fill-opacity: 1;"/><path class="point" transform="translate(278.63,348.38)" d="M2.5,0A2.5,2.5 0 1,1 0,-2.5A2.5,2.5 0 0,1 2.5,0Z" style="opacity: 1; stroke-width: 0px; fill: rgb(158, 158, 158); fill-opacity: 1;"/><path class="point" transform="translate(285.78,318.82)" d="M2.5,0A2.5,2.5 0 1,1 0,-2.5A2.5,2.5 0 0,1 2.5,0Z" style="opacity: 1; stroke-width: 0px; fill: rgb(158, 158, 158); fill-opacity: 1;"/><path class="point" transform="translate(292.92,348.38)" d="M2.5,0A2.5,2.5 0 1,1 0,-2.5A2.5,2.5 0 0,1 2.5,0Z" style="opacity: 1; stroke-width: 0px; fill: rgb(158, 158, 158); fill-opacity: 1;"/><path class="point" transform="translate(314.36,318.82)" d="M2.5,0A2.5,2.5 0 1,1 0,-2.5A2.5,2.5 0 0,1 2.5,0Z" style="opacity: 1; stroke-width: 0px; fill: rgb(158, 158, 158); fill-opacity: 1;"/><path class="point" transform="translate(328.64,348.38)" d="M2.5,0A2.5,2.5 0 1,1 0,-2.5A2.5,2.5 0 0,1 2.5,0Z" style="opacity: 1; stroke-width: 0px; fill: rgb(158, 158, 158); fill-opacity: 1;"/><path class="point" transform="translate(335.79,318.82)" d="M2.5,0A2.5,2.5 0 1,1 0,-2.5A2.5,2.5 0 0,1 2.5,0Z" style="opacity: 1; stroke-width: 0px; fill: rgb(158, 158, 158); fill-opacity: 1;"/><path class="point" transform="translate(357.22,348.38)" d="M2.5,0A2.5,2.5 0 1,1 0,-2.5A2.5,2.5 0 0,1 2.5,0Z" style="opacity: 1; stroke-width: 0px; fill: rgb(158, 158, 158); fill-opacity: 1;"/><path class="point" transform="translate(364.37,318.82)" d="M2.5,0A2.5,2.5 0 1,1 0,-2.5A2.5,2.5 0 0,1 2.5,0Z" style="opacity: 1; stroke-width: 0px; fill: rgb(158, 158, 158); fill-opacity: 1;"/><path class="point" transform="translate(385.8,348.38)" d="M2.5,0A2.5,2.5 0 1,1 0,-2.5A2.5,2.5 0 0,1 2.5,0Z" style="opacity: 1; stroke-width: 0px; fill: rgb(158, 158, 158); fill-opacity: 1;"/><path class="point" transform="translate(392.94,348.38)" d="M2.5,0A2.5,2.5 0 1,1 0,-2.5A2.5,2.5 0 0,1 2.5,0Z" style="opacity: 1; stroke-width: 0px; fill: rgb(158, 158, 158); fill-opacity: 1;"/><path class="point" transform="translate(400.09,348.38)" d="M2.5,0A2.5,2.5 0 1,1 0,-2.5A2.5,2.5 0 0,1 2.5,0Z" style="opacity: 1; stroke-width: 0px; fill: rgb(158, 158, 158); fill-opacity: 1;"/><path class="point" transform="translate(414.38,348.38)" d="M2.5,0A2.5,2.5 0 1,1 0,-2.5A2.5,2.5 0 0,1 2.5,0Z" style="opacity: 1; stroke-width: 0px; fill: rgb(158, 158, 158); fill-opacity: 1;"/><path class="point" transform="translate(428.67,318.82)" d="M2.5,0A2.5,2.5 0 1,1 0,-2.5A2.5,2.5 0 0,1 2.5,0Z" style="opacity: 1; stroke-width: 0px; fill: rgb(158, 158, 158); fill-opacity: 1;"/><path class="point" transform="translate(557.27,348.38)" d="M2.5,0A2.5,2.5 0 1,1 0,-2.5A2.5,2.5 0 0,1 2.5,0Z" style="opacity: 1; stroke-width: 0px; fill: rgb(158, 158, 158); fill-opacity: 1;"/><path class="point" transform="translate(600.13,348.38)" d="M2.5,0A2.5,2.5 0 1,1 0,-2.5A2.5,2.5 0 0,1 2.5,0Z" style="opacity: 1; stroke-width: 0px; fill: rgb(158, 158, 158); fill-opacity: 1;"/><path class="point" transform="translate(643,348.38)" d="M2.5,0A2.5,2.5 0 1,1 0,-2.5A2.5,2.5 0 0,1 2.5,0Z" style="opacity: 1; stroke-width: 0px; fill: rgb(158, 158, 158); fill-opacity: 1;"/></g><g class="text"/></g><g class="trace scatter trace50b139" style="stroke-miterlimit: 2;"><g class="fills"><g><path class="js-fill" d="M507.26,3885L0,3885L0,24.72L7.14,82.71L14.29,106.46L21.43,128.15L28.58,143.53L35.72,162.06L42.87,166.61L50.01,181.57L57.16,207.84L64.3,214.68L71.44,214.68L78.59,212.86L85.73,239L92.88,239L100.02,225.13L107.17,254.68L114.31,232.9L121.46,250.19L128.6,279.75L135.74,271.97L142.89,271.97L150.03,271.97L157.18,318.82L164.32,301.53L171.47,318.82L185.76,348.38L192.9,279.75L207.19,348.38L214.33,348.38L242.91,348.38L250.06,318.82L257.2,348.38L271.49,348.38L300.07,348.38L314.36,289.26L350.08,348.38L364.37,348.38L507.26,348.38" style="fill: rgb(196, 163, 90); fill-opacity: 0.2; stroke-width: 0;"/></g></g><g class="errorbars"/><g class="lines"><path class="js-line" d="M0,24.72L7.14,82.71L14.29,106.46L21.43,128.15L28.58,143.53L35.72,162.06L42.87,166.61L50.01,181.57L57.16,207.84L64.3,214.68L71.44,214.68L78.59,212.86L85.73,239L92.88,239L100.02,225.13L107.17,254.68L114.31,232.9L121.46,250.19L128.6,279.75L135.74,271.97L142.89,271.97L150.03,271.97L157.18,318.82L164.32,301.53L171.47,318.82L185.76,348.38L192.9,279.75L207.19,348.38L214.33,348.38L242.91,348.38L250.06,318.82L257.2,348.38L271.49,348.38L300.07,348.38L314.36,289.26L350.08,348.38L364.37,348.38L507.26,348.38" style="vector-effect: none; fill: none; stroke: rgb(196, 163, 90); stroke-opacity: 1; stroke-width: 2px; opacity: 1;"/></g><g class="points"><path class="point" transform="translate(0,24.72)" d="M2.5,0A2.5,2.5 0 1,1 0,-2.5A2.5,2.5 0 0,1 2.5,0Z" style="opacity: 1; stroke-width: 0px; fill: rgb(196, 163, 90); fill-opacity: 1;"/><path class="point" transform="translate(7.14,82.71)" d="M2.5,0A2.5,2.5 0 1,1 0,-2.5A2.5,2.5 0 0,1 2.5,0Z" style="opacity: 1; stroke-width: 0px; fill: rgb(196, 163, 90); fill-opacity: 1;"/><path class="point" transform="translate(14.29,106.46)" d="M2.5,0A2.5,2.5 0 1,1 0,-2.5A2.5,2.5 0 0,1 2.5,0Z" style="opacity: 1; stroke-width: 0px; fill: rgb(196, 163, 90); fill-opacity: 1;"/><path class="point" transform="translate(21.43,128.15)" d="M2.5,0A2.5,2.5 0 1,1 0,-2.5A2.5,2.5 0 0,1 2.5,0Z" style="opacity: 1; stroke-width: 0px; fill: rgb(196, 163, 90); fill-opacity: 1;"/><path class="point" transform="translate(28.58,143.53)" d="M2.5,0A2.5,2.5 0 1,1 0,-2.5A2.5,2.5 0 0,1 2.5,0Z" style="opacity: 1; stroke-width: 0px; fill: rgb(196, 163, 90); fill-opacity: 1;"/><path class="point" transform="translate(35.72,162.06)" d="M2.5,0A2.5,2.5 0 1,1 0,-2.5A2.5,2.5 0 0,1 2.5,0Z" style="opacity: 1; stroke-width: 0px; fill: rgb(196, 163, 90); fill-opacity: 1;"/><path class="point" transform="translate(42.87,166.61)" d="M2.5,0A2.5,2.5 0 1,1 0,-2.5A2.5,2.5 0 0,1 2.5,0Z" style="opacity: 1; stroke-width: 0px; fill: rgb(196, 163, 90); fill-opacity: 1;"/><path class="point" transform="translate(50.01,181.57)" d="M2.5,0A2.5,2.5 0 1,1 0,-2.5A2.5,2.5 0 0,1 2.5,0Z" style="opacity: 1; stroke-width: 0px; fill: rgb(196, 163, 90); fill-opacity: 1;"/><path class="point" transform="translate(57.16,207.84)" d="M2.5,0A2.5,2.5 0 1,1 0,-2.5A2.5,2.5 0 0,1 2.5,0Z" style="opacity: 1; stroke-width: 0px; fill: rgb(196, 163, 90); fill-opacity: 1;"/><path class="point" transform="translate(64.3,214.68)" d="M2.5,0A2.5,2.5 0 1,1 0,-2.5A2.5,2.5 0 0,1 2.5,0Z" style="opacity: 1; stroke-width: 0px; fill: rgb(196, 163, 90); fill-opacity: 1;"/><path class="point" transform="translate(71.44,214.68)" d="M2.5,0A2.5,2.5 0 1,1 0,-2.5A2.5,2.5 0 0,1 2.5,0Z" style="opacity: 1; stroke-width: 0px; fill: rgb(196, 163, 90); fill-opacity: 1;"/><path class="point" transform="translate(78.59,212.86)" d="M2.5,0A2.5,2.5 0 1,1 0,-2.5A2.5,2.5 0 0,1 2.5,0Z" style="opacity: 1; stroke-width: 0px; fill: rgb(196, 163, 90); fill-opacity: 1;"/><path class="point" transform="translate(85.73,239)" d="M2.5,0A2.5,2.5 0 1,1 0,-2.5A2.5,2.5 0 0,1 2.5,0Z" style="opacity: 1; stroke-width: 0px; fill: rgb(196, 163, 90); fill-opacity: 1;"/><path class="point" transform="translate(92.88,239)" d="M2.5,0A2.5,2.5 0 1,1 0,-2.5A2.5,2.5 0 0,1 2.5,0Z" style="opacity: 1; stroke-width: 0px; fill: rgb(196, 163, 90); fill-opacity: 1;"/><path class="point" transform="translate(100.02,225.13)" d="M2.5,0A2.5,2.5 0 1,1 0,-2.5A2.5,2.5 0 0,1 2.5,0Z" style="opacity: 1; stroke-width: 0px; fill: rgb(196, 163, 90); fill-opacity: 1;"/><path class="point" transform="translate(107.17,254.68)" d="M2.5,0A2.5,2.5 0 1,1 0,-2.5A2.5,2.5 0 0,1 2.5,0Z" style="opacity: 1; stroke-width: 0px; fill: rgb(196, 163, 90); fill-opacity: 1;"/><path class="point" transform="translate(114.31,232.9)" d="M2.5,0A2.5,2.5 0 1,1 0,-2.5A2.5,2.5 0 0,1 2.5,0Z" style="opacity: 1; stroke-width: 0px; fill: rgb(196, 163, 90); fill-opacity: 1;"/><path class="point" transform="translate(121.46,250.19)" d="M2.5,0A2.5,2.5 0 1,1 0,-2.5A2.5,2.5 0 0,1 2.5,0Z" style="opacity: 1; stroke-width: 0px; fill: rgb(196, 163, 90); fill-opacity: 1;"/><path class="point" transform="translate(128.6,279.75)" d="M2.5,0A2.5,2.5 0 1,1 0,-2.5A2.5,2.5 0 0,1 2.5,0Z" style="opacity: 1; stroke-width: 0px; fill: rgb(196, 163, 90); fill-opacity: 1;"/><path class="point" transform="translate(135.74,271.97)" d="M2.5,0A2.5,2.5 0 1,1 0,-2.5A2.5,2.5 0 0,1 2.5,0Z" style="opacity: 1; stroke-width: 0px; fill: rgb(196, 163, 90); fill-opacity: 1;"/><path class="point" transform="translate(142.89,271.97)" d="M2.5,0A2.5,2.5 0 1,1 0,-2.5A2.5,2.5 0 0,1 2.5,0Z" style="opacity: 1; stroke-width: 0px; fill: rgb(196, 163, 90); fill-opacity: 1;"/><path class="point" transform="translate(150.03,271.97)" d="M2.5,0A2.5,2.5 0 1,1 0,-2.5A2.5,2.5 0 0,1 2.5,0Z" style="opacity: 1; stroke-width: 0px; fill: rgb(196, 163, 90); fill-opacity: 1;"/><path class="point" transform="translate(157.18,318.82)" d="M2.5,0A2.5,2.5 0 1,1 0,-2.5A2.5,2.5 0 0,1 2.5,0Z" style="opacity: 1; stroke-width: 0px; fill: rgb(196, 163, 90); fill-opacity: 1;"/><path class="point" transform="translate(164.32,301.53)" d="M2.5,0A2.5,2.5 0 1,1 0,-2.5A2.5,2.5 0 0,1 2.5,0Z" style="opacity: 1; stroke-width: 0px; fill: rgb(196, 163, 90); fill-opacity: 1;"/><path class="point" transform="translate(171.47,318.82)" d="M2.5,0A2.5,2.5 0 1,1 0,-2.5A2.5,2.5 0 0,1 2.5,0Z" style="opacity: 1; stroke-width: 0px; fill: rgb(196, 163, 90); fill-opacity: 1;"/><path class="point" transform="translate(185.76,348.38)" d="M2.5,0A2.5,2.5 0 1,1 0,-2.5A2.5,2.5 0 0,1 2.5,0Z" style="opacity: 1; stroke-width: 0px; fill: rgb(196, 163, 90); fill-opacity: 1;"/><path class="point" transform="translate(192.9,279.75)" d="M2.5,0A2.5,2.5 0 1,1 0,-2.5A2.5,2.5 0 0,1 2.5,0Z" style="opacity: 1; stroke-width: 0px; fill: rgb(196, 163, 90); fill-opacity: 1;"/><path class="point" transform="translate(207.19,348.38)" d="M2.5,0A2.5,2.5 0 1,1 0,-2.5A2.5,2.5 0 0,1 2.5,0Z" style="opacity: 1; stroke-width: 0px; fill: rgb(196, 163, 90); fill-opacity: 1;"/><path class="point" transform="translate(214.33,348.38)" d="M2.5,0A2.5,2.5 0 1,1 0,-2.5A2.5,2.5 0 0,1 2.5,0Z" style="opacity: 1; stroke-width: 0px; fill: rgb(196, 163, 90); fill-opacity: 1;"/><path class="point" transform="translate(221.48,348.38)" d="M2.5,0A2.5,2.5 0 1,1 0,-2.5A2.5,2.5 0 0,1 2.5,0Z" style="opacity: 1; stroke-width: 0px; fill: rgb(196, 163, 90); fill-opacity: 1;"/><path class="point" transform="translate(228.62,348.38)" d="M2.5,0A2.5,2.5 0 1,1 0,-2.5A2.5,2.5 0 0,1 2.5,0Z" style="opacity: 1; stroke-width: 0px; fill: rgb(196, 163, 90); fill-opacity: 1;"/><path class="point" transform="translate(235.77,348.38)" d="M2.5,0A2.5,2.5 0 1,1 0,-2.5A2.5,2.5 0 0,1 2.5,0Z" style="opacity: 1; stroke-width: 0px; fill: rgb(196, 163, 90); fill-opacity: 1;"/><path class="point" transform="translate(242.91,348.38)" d="M2.5,0A2.5,2.5 0 1,1 0,-2.5A2.5,2.5 0 0,1 2.5,0Z" style="opacity: 1; stroke-width: 0px; fill: rgb(196, 163, 90); fill-opacity: 1;"/><path class="point" transform="translate(250.06,318.82)" d="M2.5,0A2.5,2.5 0 1,1 0,-2.5A2.5,2.5 0 0,1 2.5,0Z" style="opacity: 1; stroke-width: 0px; fill: rgb(196, 163, 90); fill-opacity: 1;"/><path class="point" transform="translate(257.2,348.38)" d="M2.5,0A2.5,2.5 0 1,1 0,-2.5A2.5,2.5 0 0,1 2.5,0Z" style="opacity: 1; stroke-width: 0px; fill: rgb(196, 163, 90); fill-opacity: 1;"/><path class="point" transform="translate(271.49,348.38)" d="M2.5,0A2.5,2.5 0 1,1 0,-2.5A2.5,2.5 0 0,1 2.5,0Z" style="opacity: 1; stroke-width: 0px; fill: rgb(196, 163, 90); fill-opacity: 1;"/><path class="point" transform="translate(278.63,348.38)" d="M2.5,0A2.5,2.5 0 1,1 0,-2.5A2.5,2.5 0 0,1 2.5,0Z" style="opacity: 1; stroke-width: 0px; fill: rgb(196, 163, 90); fill-opacity: 1;"/><path class="point" transform="translate(300.07,348.38)" d="M2.5,0A2.5,2.5 0 1,1 0,-2.5A2.5,2.5 0 0,1 2.5,0Z" style="opacity: 1; stroke-width: 0px; fill: rgb(196, 163, 90); fill-opacity: 1;"/><path class="point" transform="translate(314.36,289.26)" d="M2.5,0A2.5,2.5 0 1,1 0,-2.5A2.5,2.5 0 0,1 2.5,0Z" style="opacity: 1; stroke-width: 0px; fill: rgb(196, 163, 90); fill-opacity: 1;"/><path class="point" transform="translate(350.08,348.38)" d="M2.5,0A2.5,2.5 0 1,1 0,-2.5A2.5,2.5 0 0,1 2.5,0Z" style="opacity: 1; stroke-width: 0px; fill: rgb(196, 163, 90); fill-opacity: 1;"/><path class="point" transform="translate(364.37,348.38)" d="M2.5,0A2.5,2.5 0 1,1 0,-2.5A2.5,2.5 0 0,1 2.5,0Z" style="opacity: 1; stroke-width: 0px; fill: rgb(196, 163, 90); fill-opacity: 1;"/><path class="point" transform="translate(371.51,348.38)" d="M2.5,0A2.5,2.5 0 1,1 0,-2.5A2.5,2.5 0 0,1 2.5,0Z" style="opacity: 1; stroke-width: 0px; fill: rgb(196, 163, 90); fill-opacity: 1;"/><path class="point" transform="translate(385.8,348.38)" d="M2.5,0A2.5,2.5 0 1,1 0,-2.5A2.5,2.5 0 0,1 2.5,0Z" style="opacity: 1; stroke-width: 0px; fill: rgb(196, 163, 90); fill-opacity: 1;"/><path class="point" transform="translate(507.26,348.38)" d="M2.5,0A2.5,2.5 0 1,1 0,-2.5A2.5,2.5 0 0,1 2.5,0Z" style="opacity: 1; stroke-width: 0px; fill: rgb(196, 163, 90); fill-opacity: 1;"/></g><g class="text"/></g><g class="trace scatter trace56300c" style="stroke-miterlimit: 2;"><g class="fills"><g><path class="js-fill" d="M185.76,3885L0,3885L0,29.1L7.14,95.42L14.29,128.15L21.43,161.52L28.58,179.89L35.72,201.95L42.87,207.84L50.01,227.57L57.16,259.71L64.3,259.71L71.44,265.4L78.59,289.26L85.73,301.53L92.88,348.38L100.02,318.82L107.17,348.38L114.31,318.82L121.46,348.38L128.6,318.82L150.03,318.82L157.18,348.38L185.76,348.38" style="fill: rgb(91, 166, 122); fill-opacity: 0.2; stroke-width: 0;"/></g></g><g class="errorbars"/><g class="lines"><path class="js-line" d="M0,29.1L7.14,95.42L14.29,128.15L21.43,161.52L28.58,179.89L35.72,201.95L42.87,207.84L50.01,227.57L57.16,259.71L64.3,259.71L71.44,265.4L78.59,289.26L85.73,301.53L92.88,348.38L100.02,318.82L107.17,348.38L114.31,318.82L121.46,348.38L128.6,318.82L150.03,318.82L157.18,348.38L185.76,348.38" style="vector-effect: none; fill: none; stroke: rgb(91, 166, 122); stroke-opacity: 1; stroke-width: 2px; opacity: 1;"/></g><g class="points"><path class="point" transform="translate(0,29.1)" d="M2.5,0A2.5,2.5 0 1,1 0,-2.5A2.5,2.5 0 0,1 2.5,0Z" style="opacity: 1; stroke-width: 0px; fill: rgb(91, 166, 122); fill-opacity: 1;"/><path class="point" transform="translate(7.14,95.42)" d="M2.5,0A2.5,2.5 0 1,1 0,-2.5A2.5,2.5 0 0,1 2.5,0Z" style="opacity: 1; stroke-width: 0px; fill: rgb(91, 166, 122); fill-opacity: 1;"/><path class="point" transform="translate(14.29,128.15)" d="M2.5,0A2.5,2.5 0 1,1 0,-2.5A2.5,2.5 0 0,1 2.5,0Z" style="opacity: 1; stroke-width: 0px; fill: rgb(91, 166, 122); fill-opacity: 1;"/><path class="point" transform="translate(21.43,161.52)" d="M2.5,0A2.5,2.5 0 1,1 0,-2.5A2.5,2.5 0 0,1 2.5,0Z" style="opacity: 1; stroke-width: 0px; fill: rgb(91, 166, 122); fill-opacity: 1;"/><path class="point" transform="translate(28.58,179.89)" d="M2.5,0A2.5,2.5 0 1,1 0,-2.5A2.5,2.5 0 0,1 2.5,0Z" style="opacity: 1; stroke-width: 0px; fill: rgb(91, 166, 122); fill-opacity: 1;"/><path class="point" transform="translate(35.72,201.95)" d="M2.5,0A2.5,2.5 0 1,1 0,-2.5A2.5,2.5 0 0,1 2.5,0Z" style="opacity: 1; stroke-width: 0px; fill: rgb(91, 166, 122); fill-opacity: 1;"/><path class="point" transform="translate(42.87,207.84)" d="M2.5,0A2.5,2.5 0 1,1 0,-2.5A2.5,2.5 0 0,1 2.5,0Z" style="opacity: 1; stroke-width: 0px; fill: rgb(91, 166, 122); fill-opacity: 1;"/><path class="point" transform="translate(50.01,227.57)" d="M2.5,0A2.5,2.5 0 1,1 0,-2.5A2.5,2.5 0 0,1 2.5,0Z" style="opacity: 1; stroke-width: 0px; fill: rgb(91, 166, 122); fill-opacity: 1;"/><path class="point" transform="translate(57.16,259.71)" d="M2.5,0A2.5,2.5 0 1,1 0,-2.5A2.5,2.5 0 0,1 2.5,0Z" style="opacity: 1; stroke-width: 0px; fill: rgb(91, 166, 122); fill-opacity: 1;"/><path class="point" transform="translate(64.3,259.71)" d="M2.5,0A2.5,2.5 0 1,1 0,-2.5A2.5,2.5 0 0,1 2.5,0Z" style="opacity: 1; stroke-width: 0px; fill: rgb(91, 166, 122); fill-opacity: 1;"/><path class="point" transform="translate(71.44,265.4)" d="M2.5,0A2.5,2.5 0 1,1 0,-2.5A2.5,2.5 0 0,1 2.5,0Z" style="opacity: 1; stroke-width: 0px; fill: rgb(91, 166, 122); fill-opacity: 1;"/><path class="point" transform="translate(78.59,289.26)" d="M2.5,0A2.5,2.5 0 1,1 0,-2.5A2.5,2.5 0 0,1 2.5,0Z" style="opacity: 1; stroke-width: 0px; fill: rgb(91, 166, 122); fill-opacity: 1;"/><path class="point" transform="translate(85.73,301.53)" d="M2.5,0A2.5,2.5 0 1,1 0,-2.5A2.5,2.5 0 0,1 2.5,0Z" style="opacity: 1; stroke-width: 0px; fill: rgb(91, 166, 122); fill-opacity: 1;"/><path class="point" transform="translate(92.88,348.38)" d="M2.5,0A2.5,2.5 0 1,1 0,-2.5A2.5,2.5 0 0,1 2.5,0Z" style="opacity: 1; stroke-width: 0px; fill: rgb(91, 166, 122); fill-opacity: 1;"/><path class="point" transform="translate(100.02,318.82)" d="M2.5,0A2.5,2.5 0 1,1 0,-2.5A2.5,2.5 0 0,1 2.5,0Z" style="opacity: 1; stroke-width: 0px; fill: rgb(91, 166, 122); fill-opacity: 1;"/><path class="point" transform="translate(107.17,348.38)" d="M2.5,0A2.5,2.5 0 1,1 0,-2.5A2.5,2.5 0 0,1 2.5,0Z" style="opacity: 1; stroke-width: 0px; fill: rgb(91, 166, 122); fill-opacity: 1;"/><path class="point" transform="translate(114.31,318.82)" d="M2.5,0A2.5,2.5 0 1,1 0,-2.5A2.5,2.5 0 0,1 2.5,0Z" style="opacity: 1; stroke-width: 0px; fill: rgb(91, 166, 122); fill-opacity: 1;"/><path class="point" transform="translate(121.46,348.38)" d="M2.5,0A2.5,2.5 0 1,1 0,-2.5A2.5,2.5 0 0,1 2.5,0Z" style="opacity: 1; stroke-width: 0px; fill: rgb(91, 166, 122); fill-opacity: 1;"/><path class="point" transform="translate(128.6,318.82)" d="M2.5,0A2.5,2.5 0 1,1 0,-2.5A2.5,2.5 0 0,1 2.5,0Z" style="opacity: 1; stroke-width: 0px; fill: rgb(91, 166, 122); fill-opacity: 1;"/><path class="point" transform="translate(150.03,318.82)" d="M2.5,0A2.5,2.5 0 1,1 0,-2.5A2.5,2.5 0 0,1 2.5,0Z" style="opacity: 1; stroke-width: 0px; fill: rgb(91, 166, 122); fill-opacity: 1;"/><path class="point" transform="translate(157.18,348.38)" d="M2.5,0A2.5,2.5 0 1,1 0,-2.5A2.5,2.5 0 0,1 2.5,0Z" style="opacity: 1; stroke-width: 0px; fill: rgb(91, 166, 122); fill-opacity: 1;"/><path class="point" transform="translate(185.76,348.38)" d="M2.5,0A2.5,2.5 0 1,1 0,-2.5A2.5,2.5 0 0,1 2.5,0Z" style="opacity: 1; stroke-width: 0px; fill: rgb(91, 166, 122); fill-opacity: 1;"/></g><g class="text"/></g></g></g></g><g class="zerolinelayer-above"/><path class="xlines-above crisp" d="M0,0" style="fill: none;"/><path class="ylines-above crisp" d="M0,0" style="fill: none;"/><g class="overlines-above"/><g class="xaxislayer-above"><g class="xtick"><text text-anchor="middle" x="0" y="486" transform="translate(105.43,0)" style="font-family: 'Open Sans', verdana, arial, sans-serif; font-size: 15px; fill: rgb(42, 63, 95); fill-opacity: 1; white-space: pre;">5</text></g><g class="xtick"><text text-anchor="middle" x="0" y="486" style="font-family: 'Open Sans', verdana, arial, sans-serif; font-size: 15px; fill: rgb(42, 63, 95); fill-opacity: 1; white-space: pre;" transform="translate(141.16,0)">10</text></g><g class="xtick"><text text-anchor="middle" x="0" y="486" style="font-family: 'Open Sans', verdana, arial, sans-serif; font-size: 15px; fill: rgb(42, 63, 95); fill-opacity: 1; white-space: pre;" transform="translate(176.88,0)">15</text></g><g class="xtick"><text text-anchor="middle" x="0" y="486" style="font-family: 'Open Sans', verdana, arial, sans-serif; font-size: 15px; fill: rgb(42, 63, 95); fill-opacity: 1; white-space: pre;" transform="translate(212.6,0)">20</text></g><g class="xtick"><text text-anchor="middle" x="0" y="486" style="font-family: 'Open Sans', verdana, arial, sans-serif; font-size: 15px; fill: rgb(42, 63, 95); fill-opacity: 1; white-space: pre;" transform="translate(248.32,0)">25</text></g><g class="xtick"><text text-anchor="middle" x="0" y="486" style="font-family: 'Open Sans', verdana, arial, sans-serif; font-size: 15px; fill: rgb(42, 63, 95); fill-opacity: 1; white-space: pre;" transform="translate(284.03999999999996,0)">30</text></g><g class="xtick"><text text-anchor="middle" x="0" y="486" style="font-family: 'Open Sans', verdana, arial, sans-serif; font-size: 15px; fill: rgb(42, 63, 95); fill-opacity: 1; white-space: pre;" transform="translate(319.77,0)">35</text></g><g class="xtick"><text text-anchor="middle" x="0" y="486" style="font-family: 'Open Sans', verdana, arial, sans-serif; font-size: 15px; fill: rgb(42, 63, 95); fill-opacity: 1; white-space: pre;" transform="translate(355.49,0)">40</text></g><g class="xtick"><text text-anchor="middle" x="0" y="486" style="font-family: 'Open Sans', verdana, arial, sans-serif; font-size: 15px; fill: rgb(42, 63, 95); fill-opacity: 1; white-space: pre;" transform="translate(391.21,0)">45</text></g><g class="xtick"><text text-anchor="middle" x="0" y="486" style="font-family: 'Open Sans', verdana, arial, sans-serif; font-size: 15px; fill: rgb(42, 63, 95); fill-opacity: 1; white-space: pre;" transform="translate(426.93,0)">50</text></g><g class="xtick"><text text-anchor="middle" x="0" y="486" style="font-family: 'Open Sans', verdana, arial, sans-serif; font-size: 15px; fill: rgb(42, 63, 95); fill-opacity: 1; white-space: pre;" transform="translate(462.66,0)">55</text></g><g class="xtick"><text text-anchor="middle" x="0" y="486" style="font-family: 'Open Sans', verdana, arial, sans-serif; font-size: 15px; fill: rgb(42, 63, 95); fill-opacity: 1; white-space: pre;" transform="translate(498.38,0)">60</text></g><g class="xtick"><text text-anchor="middle" x="0" y="486" style="font-family: 'Open Sans', verdana, arial, sans-serif; font-size: 15px; fill: rgb(42, 63, 95); fill-opacity: 1; white-space: pre;" transform="translate(534.1,0)">65</text></g><g class="xtick"><text text-anchor="middle" x="0" y="486" style="font-family: 'Open Sans', verdana, arial, sans-serif; font-size: 15px; fill: rgb(42, 63, 95); fill-opacity: 1; white-space: pre;" transform="translate(569.8199999999999,0)">70</text></g><g class="xtick"><text text-anchor="middle" x="0" y="486" style="font-family: 'Open Sans', verdana, arial, sans-serif; font-size: 15px; fill: rgb(42, 63, 95); fill-opacity: 1; white-space: pre;" transform="translate(605.54,0)">75</text></g><g class="xtick"><text text-anchor="middle" x="0" y="486" style="font-family: 'Open Sans', verdana, arial, sans-serif; font-size: 15px; fill: rgb(42, 63, 95); fill-opacity: 1; white-space: pre;" transform="translate(641.27,0)">80</text></g><g class="xtick"><text text-anchor="middle" x="0" y="486" style="font-family: 'Open Sans', verdana, arial, sans-serif; font-size: 15px; fill: rgb(42, 63, 95); fill-opacity: 1; white-space: pre;" transform="translate(676.99,0)">85</text></g><g class="xtick"><text text-anchor="middle" x="0" y="486" style="font-family: 'Open Sans', verdana, arial, sans-serif; font-size: 15px; fill: rgb(42, 63, 95); fill-opacity: 1; white-space: pre;" transform="translate(712.71,0)">90</text></g></g><g class="yaxislayer-above"><g class="ytick"><text text-anchor="end" x="83" y="5.25" transform="translate(0,448.38)" style="font-family: 'Open Sans', verdana, arial, sans-serif; font-size: 15px; fill: rgb(42, 63, 95); fill-opacity: 1; white-space: pre;">1</text></g><g class="ytick"><text text-anchor="end" x="83" y="5.25" style="font-family: 'Open Sans', verdana, arial, sans-serif; font-size: 15px; fill: rgb(42, 63, 95); fill-opacity: 1; white-space: pre;" transform="translate(0,350.19)">10</text></g><g class="ytick"><text text-anchor="end" x="83" y="5.25" style="font-family: 'Open Sans', verdana, arial, sans-serif; font-size: 15px; fill: rgb(42, 63, 95); fill-opacity: 1; white-space: pre;" transform="translate(0,252.01)">100</text></g><g class="ytick"><text text-anchor="end" x="83" y="5.25" style="font-family: 'Open Sans', verdana, arial, sans-serif; font-size: 15px; fill: rgb(42, 63, 95); fill-opacity: 1; white-space: pre;" transform="translate(0,153.82999999999998)">1,000</text></g></g><g class="overaxes-above"/></g></g><g class="polarlayer"/><g class="smithlayer"/><g class="ternarylayer"/><g class="geolayer"/><g class="funnelarealayer"/><g class="pielayer"/><g class="iciclelayer"/><g class="treemaplayer"/><g class="sunburstlayer"/><g class="glimages"/><defs id="topdefs-6b4978"><g class="clips"/><clipPath id="legend6b4978"><rect width="248" height="99" x="0" y="0"/></clipPath></defs><g class="layer-above"><g class="imagelayer"/><g class="shapelayer"/></g><g class="infolayer"><g class="legend" pointer-events="all" transform="translate(739.86,100)"><rect class="bg" shape-rendering="crispEdges" style="stroke: rgb(68, 68, 68); stroke-opacity: 1; fill: rgb(255, 255, 255); fill-opacity: 1; stroke-width: 0px;" width="248" height="99" x="0" y="0"/><g class="scrollbox" transform="" clip-path="url(#legend6b4978)"><text class="legendtitletext" text-anchor="start" x="2" y="20.8" style="font-family: 'Open Sans', verdana, arial, sans-serif; font-size: 16px; fill: rgb(42, 63, 95); fill-opacity: 1; white-space: pre;">Dataset level</text><g class="groups"><g class="traces" transform="translate(0,37.05)" style="opacity: 1;"><text class="legendtext" text-anchor="start" x="40" y="5.85" style="font-family: 'Open Sans', verdana, arial, sans-serif; font-size: 15px; fill: rgb(42, 63, 95); fill-opacity: 1; white-space: pre;">Genome (4,247 families)</text><g class="layers"><g class="legendfill"><path class="js-fill" d="M5,0h30v6h-30z" style="stroke-width: 0; fill: rgb(158, 158, 158); fill-opacity: 0.2;"/></g><g class="legendlines"><path class="js-line" d="M5,0h30" style="fill: none; stroke: rgb(158, 158, 158); stroke-opacity: 1; stroke-width: 2px;"/></g><g class="legendsymbols"><g class="legendpoints"><path class="scatterpts" transform="translate(20,0)" d="M2.5,0A2.5,2.5 0 1,1 0,-2.5A2.5,2.5 0 0,1 2.5,0Z" style="opacity: 1; stroke-width: 0px; fill: rgb(158, 158, 158); fill-opacity: 1;"/></g></g></g><rect class="legendtoggle" x="0" y="-11.25" width="242.703125" height="22.5" style="fill: rgb(0, 0, 0); fill-opacity: 0;"/></g><g class="traces" transform="translate(0,59.55)" style="opacity: 1;"><text class="legendtext" text-anchor="start" x="40" y="5.85" style="font-family: 'Open Sans', verdana, arial, sans-serif; font-size: 15px; fill: rgb(42, 63, 95); fill-opacity: 1; white-space: pre;">Mapped (3,507 families)</text><g class="layers"><g class="legendfill"><path class="js-fill" d="M5,0h30v6h-30z" style="stroke-width: 0; fill: rgb(196, 163, 90); fill-opacity: 0.2;"/></g><g class="legendlines"><path class="js-line" d="M5,0h30" style="fill: none; stroke: rgb(196, 163, 90); stroke-opacity: 1; stroke-width: 2px;"/></g><g class="legendsymbols"><g class="legendpoints"><path class="scatterpts" transform="translate(20,0)" d="M2.5,0A2.5,2.5 0 1,1 0,-2.5A2.5,2.5 0 0,1 2.5,0Z" style="opacity: 1; stroke-width: 0px; fill: rgb(196, 163, 90); fill-opacity: 1;"/></g></g></g><rect class="legendtoggle" x="0" y="-11.25" width="242.703125" height="22.5" style="fill: rgb(0, 0, 0); fill-opacity: 0;"/></g><g class="traces" transform="translate(0,82.05)" style="opacity: 1;"><text class="legendtext" text-anchor="start" x="40" y="5.85" style="font-family: 'Open Sans', verdana, arial, sans-serif; font-size: 15px; fill: rgb(42, 63, 95); fill-opacity: 1; white-space: pre;">Expressed (2,588 families)</text><g class="layers"><g class="legendfill"><path class="js-fill" d="M5,0h30v6h-30z" style="stroke-width: 0; fill: rgb(91, 166, 122); fill-opacity: 0.2;"/></g><g class="legendlines"><path class="js-line" d="M5,0h30" style="fill: none; stroke: rgb(91, 166, 122); stroke-opacity: 1; stroke-width: 2px;"/></g><g class="legendsymbols"><g class="legendpoints"><path class="scatterpts" transform="translate(20,0)" d="M2.5,0A2.5,2.5 0 1,1 0,-2.5A2.5,2.5 0 0,1 2.5,0Z" style="opacity: 1; stroke-width: 0px; fill: rgb(91, 166, 122); fill-opacity: 1;"/></g></g></g><rect class="legendtoggle" x="0" y="-11.25" width="242.703125" height="22.5" style="fill: rgb(0, 0, 0); fill-opacity: 0;"/></g></g></g><rect class="scrollbar" rx="20" ry="3" width="0" height="0" style="fill: rgb(128, 139, 164); fill-opacity: 1;" x="0" y="0"/></g><g class="g-gtitle"><text class="gtitle" x="500" y="50" text-anchor="middle" dy="0em" style="opacity: 1; font-family: 'Open Sans', verdana, arial, sans-serif; font-size: 18px; fill: rgb(42, 63, 95); fill-opacity: 1; white-space: pre;">Gene family size (log10) distribution across dataset levels (size ≥ 2)</text></g><g class="g-xtitle"><text class="xtitle" x="405.5" y="515.4" text-anchor="middle" style="opacity: 1; font-family: 'Open Sans', verdana, arial, sans-serif; font-size: 17px; fill: rgb(42, 63, 95); fill-opacity: 1; white-space: pre;">Gene family size (≥ 2)</text></g><g class="g-ytitle"><text class="ytitle" transform="rotate(-90,18.940624999999997,285)" x="18.940624999999997" y="285" text-anchor="middle" style="opacity: 1; font-family: 'Open Sans', verdana, arial, sans-serif; font-size: 17px; fill: rgb(42, 63, 95); fill-opacity: 1; white-space: pre;">Number of gene families (log10 scale)</text></g></g></svg>