<svg class="main-svg" xmlns="http://www.w3.org/2000/svg" xmlns:xlink="http://www.w3.org/1999/xlink" width="1200" height="600" style="" viewBox="0 0 1200 600"><rect x="0" y="0" width="1200" height="600" style="fill: rgb(255, 255, 255); fill-opacity: 1;"/><defs id="defs-3454e4"><g class="clips"><clipPath id="clip3454e4xyplot" class="plotclip"><rect width="866" height="420"/></clipPath><clipPath class="axesclip" id="clip3454e4x"><rect x="80" y="0" width="866" height="600"/></clipPath><clipPath class="axesclip" id="clip3454e4y"><rect x="0" y="100" width="1200" height="420"/></clipPath><clipPath class="axesclip" id="clip3454e4xy"><rect x="80" y="100" width="866" height="420"/></clipPath></g><g class="gradients"/><g class="patterns"/></defs><g class="bglayer"/><g class="layer-below"><g class="imagelayer"/><g class="shapelayer"/></g><g class="cartesianlayer"><g class="subplot xy"><g class="layer-subplot"><g class="shapelayer"/><g class="imagelayer"/></g><g class="minor-gridlayer"><g class="x"/><g class="y"/></g><g class="gridlayer"><g class="x"><path class="xgrid crisp" transform="translate(108.87,0)" d="M0,100v420" style="stroke: rgb(255, 255, 255); stroke-opacity: 1; stroke-width: 1px;"/><path class="xgrid crisp" transform="translate(156.98000000000002,0)" d="M0,100v420" style="stroke: rgb(255, 255, 255); stroke-opacity: 1; stroke-width: 1px;"/><path class="xgrid crisp" transform="translate(205.09,0)" d="M0,100v420" style="stroke: rgb(255, 255, 255); stroke-opacity: 1; stroke-width: 1px;"/><path class="xgrid crisp" transform="translate(253.2,0)" d="M0,100v420" style="stroke: rgb(255, 255, 255); stroke-opacity: 1; stroke-width: 1px;"/><path class="xgrid crisp" transform="translate(301.31,0)" d="M0,100v420" style="stroke: rgb(255, 255, 255); stroke-opacity: 1; stroke-width: 1px;"/><path class="xgrid crisp" transform="translate(349.42,0)" d="M0,100v420" style="stroke: rgb(255, 255, 255); stroke-opacity: 1; stroke-width: 1px;"/><path class="xgrid crisp" transform="translate(397.53,0)" d="M0,100v420" style="stroke: rgb(255, 255, 255); stroke-opacity: 1; stroke-width: 1px;"/><path class="xgrid crisp" transform="translate(445.64,0)" d="M0,100v420" style="stroke: rgb(255, 255, 255); stroke-opacity: 1; stroke-width: 1px;"/><path class="xgrid crisp" transform="translate(493.76,0)" d="M0,100v420" style="stroke: rgb(255, 255, 255); stroke-opacity: 1; stroke-width: 1px;"/><path class="xgrid crisp" transform="translate(541.87,0)" d="M0,100v420" style="stroke: rgb(255, 255, 255); stroke-opacity: 1; stroke-width: 1px;"/><path class="xgrid crisp" transform="translate(589.98,0)" d="M0,100v420" style="stroke: rgb(255, 255, 255); stroke-opacity: 1; stroke-width: 1px;"/><path class="xgrid crisp" transform="translate(638.09,0)" d="M0,100v420" style="stroke: rgb(255, 255, 255); stroke-opacity: 1; stroke-width: 1px;"/><path class="xgrid crisp" transform="translate(686.2,0)" d="M0,100v420" style="stroke: rgb(255, 255, 255); stroke-opacity: 1; stroke-width: 1px;"/><path class="xgrid crisp" transform="translate(734.31,0)" d="M0,100v420" style="stroke: rgb(255, 255, 255); stroke-opacity: 1; stroke-width: 1px;"/><path class="xgrid crisp" transform="translate(782.42,0)" d="M0,100v420" style="stroke: rgb(255, 255, 255); stroke-opacity: 1; stroke-width: 1px;"/><path class="xgrid crisp" transform="translate(830.53,0)" d="M0,100v420" style="stroke: rgb(255, 255, 255); stroke-opacity: 1; stroke-width: 1px;"/><path class="xgrid crisp" transform="translate(878.64,0)" d="M0,100v420" style="stroke: rgb(255, 255, 255); stroke-opacity: 1; stroke-width: 1px;"/><path class="xgrid crisp" transform="translate(926.76,0)" d="M0,100v420" style="stroke: rgb(255, 255, 255); stroke-opacity: 1; stroke-width: 1px;"/></g><g class="y"><path class="ygrid crisp" transform="translate(0,496)" d="M80,0h866" style="stroke: rgb(255, 255, 255); stroke-opacity: 1; stroke-width: 1px;"/><path class="ygrid crisp" transform="translate(0,384.22)" d="M80,0h866" style="stroke: rgb(255, 255, 255); stroke-opacity: 1; stroke-width: 1px;"/><path class="ygrid crisp" transform="translate(0,272.44)" d="M80,0h866" style="stroke: rgb(255, 255, 255); stroke-opacity: 1; stroke-width: 1px;"/><path class="ygrid crisp" transform="translate(0,160.66)" d="M80,0h866" style="stroke: rgb(255, 255, 255); stroke-opacity: 1; stroke-width: 1px;"/></g></g><g class="zerolinelayer"/><g class="layer-between"><g class="shapelayer"/><g class="imagelayer"/></g><path class="xlines-below"/><path class="ylines-below"/><g class="overlines-below"/><g class="xaxislayer-below"/><g class="yaxislayer-below"/><g class="overaxes-below"/><g class="overplot"><g class="xy" transform="translate(80,100)" clip-path="url(#clip3454e4xyplot)"><g class="scatterlayer mlayer"><g class="trace scatter tracedabb98" style="stroke-miterlimit: 2;"><g class="fills"><g><path class="js-fill" d="M866,4410L0,4410L0,24L9.62,89.33L19.24,98.46L28.87,124.95L38.49,142.31L48.11,169.16L57.73,167.37L67.36,198.88L76.98,198.88L86.6,203.26L96.22,241.72L105.84,241.72L115.47,229.3L125.09,255.69L134.71,258.46L144.33,261.4L153.96,258.46L163.58,289.33L173.2,295.05L192.44,284.22L202.07,284.22L211.69,301.54L221.31,295.05L230.93,328.7L240.56,342.67L250.18,328.7L259.8,309.02L269.42,328.7L279.04,362.35L288.67,342.67L298.29,328.7L317.53,396L327.16,362.35L336.78,396L346.4,396L375.27,396L384.89,362.35L394.51,396L423.38,362.35L442.62,396L452.24,362.35L481.11,396L490.73,362.35L519.6,396L529.22,396L558.09,396L577.33,362.35L750.53,396L808.27,396L866,396" style="fill: rgb(158, 158, 158); fill-opacity: 0.2; stroke-width: 0;"/></g></g><g class="errorbars"/><g class="lines"><path class="js-line" d="M0,24L9.62,89.33L19.24,98.46L28.87,124.95L38.49,142.31L48.11,169.16L57.73,167.37L67.36,198.88L76.98,198.88L86.6,203.26L96.22,241.72L105.84,241.72L115.47,229.3L125.09,255.69L134.71,258.46L144.33,261.4L153.96,258.46L163.58,289.33L173.2,295.05L192.44,284.22L202.07,284.22L211.69,301.54L221.31,295.05L230.93,328.7L240.56,342.67L250.18,328.7L259.8,309.02L269.42,328.7L279.04,362.35L288.67,342.67L298.29,328.7L317.53,396L327.16,362.35L336.78,396L346.4,396L375.27,396L384.89,362.35L394.51,396L423.38,362.35L442.62,396L452.24,362.35L481.11,396L490.73,362.35L519.6,396L529.22,396L558.09,396L577.33,362.35L750.53,396L808.27,396L866,396" style="vector-effect: none; fill: none; stroke: rgb(158, 158, 158); stroke-opacity: 1; stroke-width: 2px; opacity: 1;"/></g><g class="points"><path class="point" transform="translate(0,24)" d="M2,0A2,2 0 1,1 0,-2A2,2 0 0,1 2,0Z" style="opacity: 1; stroke-width: 0px; fill: rgb(158, 158, 158); fill-opacity: 1;"/><path class="point" transform="translate(9.62,89.33)" d="M2,0A2,2 0 1,1 0,-2A2,2 0 0,1 2,0Z" style="opacity: 1; stroke-width: 0px; fill: rgb(158, 158, 158); fill-opacity: 1;"/><path class="point" transform="translate(19.24,98.46)" d="M2,0A2,2 0 1,1 0,-2A2,2 0 0,1 2,0Z" style="opacity: 1; stroke-width: 0px; fill: rgb(158, 158, 158); fill-opacity: 1;"/><path class="point" transform="translate(28.87,124.95)" d="M2,0A2,2 0 1,1 0,-2A2,2 0 0,1 2,0Z" style="opacity: 1; stroke-width: 0px; fill: rgb(158, 158, 158); fill-opacity: 1;"/><path class="point" transform="translate(38.49,142.31)" d="M2,0A2,2 0 1,1 0,-2A2,2 0 0,1 2,0Z" style="opacity: 1; stroke-width: 0px; fill: rgb(158, 158, 158); fill-opacity: 1;"/><path class="point" transform="translate(48.11,169.16)" d="M2,0A2,2 0 1,1 0,-2A2,2 0 0,1 2,0Z" style="opacity: 1; stroke-width: 0px; fill: rgb(158, 158, 158); fill-opacity: 1;"/><path class="point" transform="translate(57.73,167.37)" d="M2,0A2,2 0 1,1 0,-2A2,2 0 0,1 2,0Z" style="opacity: 1; stroke-width: 0px; fill: rgb(158, 158, 158); fill-opacity: 1;"/><path class="point" transform="translate(67.36,198.88)" d="M2,0A2,2 0 1,1 0,-2A2,2 0 0,1 2,0Z" style="opacity: 1; stroke-width: 0px; fill: rgb(158, 158, 158); fill-opacity: 1;"/><path class="point" transform="translate(76.98,198.88)" d="M2,0A2,2 0 1,1 0,-2A2,2 0 0,1 2,0Z" style="opacity: 1; stroke-width: 0px; fill: rgb(158, 158, 158); fill-opacity: 1;"/><path class="point" transform="translate(86.6,203.26)" d="M2,0A2,2 0 1,1 0,-2A2,2 0 0,1 2,0Z" style="opacity: 1; stroke-width: 0px; fill: rgb(158, 158, 158); fill-opacity: 1;"/><path class="point" transform="translate(96.22,241.72)" d="M2,0A2,2 0 1,1 0,-2A2,2 0 0,1 2,0Z" style="opacity: 1; stroke-width: 0px; fill: rgb(158, 158, 158); fill-opacity: 1;"/><path class="point" transform="translate(105.84,241.72)" d="M2,0A2,2 0 1,1 0,-2A2,2 0 0,1 2,0Z" style="opacity: 1; stroke-width: 0px; fill: rgb(158, 158, 158); fill-opacity: 1;"/><path class="point" transform="translate(115.47,229.3)" d="M2,0A2,2 0 1,1 0,-2A2,2 0 0,1 2,0Z" style="opacity: 1; stroke-width: 0px; fill: rgb(158, 158, 158); fill-opacity: 1;"/><path class="point" transform="translate(125.09,255.69)" d="M2,0A2,2 0 1,1 0,-2A2,2 0 0,1 2,0Z" style="opacity: 1; stroke-width: 0px; fill: rgb(158, 158, 158); fill-opacity: 1;"/><path class="point" transform="translate(134.71,258.46)" d="M2,0A2,2 0 1,1 0,-2A2,2 0 0,1 2,0Z" style="opacity: 1; stroke-width: 0px; fill: rgb(158, 158, 158); fill-opacity: 1;"/><path class="point" transform="translate(144.33,261.4)" d="M2,0A2,2 0 1,1 0,-2A2,2 0 0,1 2,0Z" style="opacity: 1; stroke-width: 0px; fill: rgb(158, 158, 158); fill-opacity: 1;"/><path class="point" transform="translate(153.96,258.46)" d="M2,0A2,2 0 1,1 0,-2A2,2 0 0,1 2,0Z" style="opacity: 1; stroke-width: 0px; fill: rgb(158, 158, 158); fill-opacity: 1;"/><path class="point" transform="translate(163.58,289.33)" d="M2,0A2,2 0 1,1 0,-2A2,2 0 0,1 2,0Z" style="opacity: 1; stroke-width: 0px; fill: rgb(158, 158, 158); fill-opacity: 1;"/><path class="point" transform="translate(173.2,295.05)" d="M2,0A2,2 0 1,1 0,-2A2,2 0 0,1 2,0Z" style="opacity: 1; stroke-width: 0px; fill: rgb(158, 158, 158); fill-opacity: 1;"/><path class="point" transform="translate(182.82,289.33)" d="M2,0A2,2 0 1,1 0,-2A2,2 0 0,1 2,0Z" style="opacity: 1; stroke-width: 0px; fill: rgb(158, 158, 158); fill-opacity: 1;"/><path class="point" transform="translate(192.44,284.22)" d="M2,0A2,2 0 1,1 0,-2A2,2 0 0,1 2,0Z" style="opacity: 1; stroke-width: 0px; fill: rgb(158, 158, 158); fill-opacity: 1;"/><path class="point" transform="translate(202.07,284.22)" d="M2,0A2,2 0 1,1 0,-2A2,2 0 0,1 2,0Z" style="opacity: 1; stroke-width: 0px; fill: rgb(158, 158, 158); fill-opacity: 1;"/><path class="point" transform="translate(211.69,301.54)" d="M2,0A2,2 0 1,1 0,-2A2,2 0 0,1 2,0Z" style="opacity: 1; stroke-width: 0px; fill: rgb(158, 158, 158); fill-opacity: 1;"/><path class="point" transform="translate(221.31,295.05)" d="M2,0A2,2 0 1,1 0,-2A2,2 0 0,1 2,0Z" style="opacity: 1; stroke-width: 0px; fill: rgb(158, 158, 158); fill-opacity: 1;"/><path class="point" transform="translate(230.93,328.7)" d="M2,0A2,2 0 1,1 0,-2A2,2 0 0,1 2,0Z" style="opacity: 1; stroke-width: 0px; fill: rgb(158, 158, 158); fill-opacity: 1;"/><path class="point" transform="translate(240.56,342.67)" d="M2,0A2,2 0 1,1 0,-2A2,2 0 0,1 2,0Z" style="opacity: 1; stroke-width: 0px; fill: rgb(158, 158, 158); fill-opacity: 1;"/><path class="point" transform="translate(250.18,328.7)" d="M2,0A2,2 0 1,1 0,-2A2,2 0 0,1 2,0Z" style="opacity: 1; stroke-width: 0px; fill: rgb(158, 158, 158); fill-opacity: 1;"/><path class="point" transform="translate(259.8,309.02)" d="M2,0A2,2 0 1,1 0,-2A2,2 0 0,1 2,0Z" style="opacity: 1; stroke-width: 0px; fill: rgb(158, 158, 158); fill-opacity: 1;"/><path class="point" transform="translate(269.42,328.7)" d="M2,0A2,2 0 1,1 0,-2A2,2 0 0,1 2,0Z" style="opacity: 1; stroke-width: 0px; fill: rgb(158, 158, 158); fill-opacity: 1;"/><path class="point" transform="translate(279.04,362.35)" d="M2,0A2,2 0 1,1 0,-2A2,2 0 0,1 2,0Z" style="opacity: 1; stroke-width: 0px; fill: rgb(158, 158, 158); fill-opacity: 1;"/><path class="point" transform="translate(288.67,342.67)" d="M2,0A2,2 0 1,1 0,-2A2,2 0 0,1 2,0Z" style="opacity: 1; stroke-width: 0px; fill: rgb(158, 158, 158); fill-opacity: 1;"/><path class="point" transform="translate(298.29,328.7)" d="M2,0A2,2 0 1,1 0,-2A2,2 0 0,1 2,0Z" style="opacity: 1; stroke-width: 0px; fill: rgb(158, 158, 158); fill-opacity: 1;"/><path class="point" transform="translate(307.91,362.35)" d="M2,0A2,2 0 1,1 0,-2A2,2 0 0,1 2,0Z" style="opacity: 1; stroke-width: 0px; fill: rgb(158, 158, 158); fill-opacity: 1;"/><path class="point" transform="translate(317.53,396)" d="M2,0A2,2 0 1,1 0,-2A2,2 0 0,1 2,0Z" style="opacity: 1; stroke-width: 0px; fill: rgb(158, 158, 158); fill-opacity: 1;"/><path class="point" transform="translate(327.16,362.35)" d="M2,0A2,2 0 1,1 0,-2A2,2 0 0,1 2,0Z" style="opacity: 1; stroke-width: 0px; fill: rgb(158, 158, 158); fill-opacity: 1;"/><path class="point" transform="translate(336.78,396)" d="M2,0A2,2 0 1,1 0,-2A2,2 0 0,1 2,0Z" style="opacity: 1; stroke-width: 0px; fill: rgb(158, 158, 158); fill-opacity: 1;"/><path class="point" transform="translate(346.4,396)" d="M2,0A2,2 0 1,1 0,-2A2,2 0 0,1 2,0Z" style="opacity: 1; stroke-width: 0px; fill: rgb(158, 158, 158); fill-opacity: 1;"/><path class="point" transform="translate(365.64,396)" d="M2,0A2,2 0 1,1 0,-2A2,2 0 0,1 2,0Z" style="opacity: 1; stroke-width: 0px; fill: rgb(158, 158, 158); fill-opacity: 1;"/><path class="point" transform="translate(375.27,396)" d="M2,0A2,2 0 1,1 0,-2A2,2 0 0,1 2,0Z" style="opacity: 1; stroke-width: 0px; fill: rgb(158, 158, 158); fill-opacity: 1;"/><path class="point" transform="translate(384.89,362.35)" d="M2,0A2,2 0 1,1 0,-2A2,2 0 0,1 2,0Z" style="opacity: 1; stroke-width: 0px; fill: rgb(158, 158, 158); fill-opacity: 1;"/><path class="point" transform="translate(394.51,396)" d="M2,0A2,2 0 1,1 0,-2A2,2 0 0,1 2,0Z" style="opacity: 1; stroke-width: 0px; fill: rgb(158, 158, 158); fill-opacity: 1;"/><path class="point" transform="translate(423.38,362.35)" d="M2,0A2,2 0 1,1 0,-2A2,2 0 0,1 2,0Z" style="opacity: 1; stroke-width: 0px; fill: rgb(158, 158, 158); fill-opacity: 1;"/><path class="point" transform="translate(442.62,396)" d="M2,0A2,2 0 1,1 0,-2A2,2 0 0,1 2,0Z" style="opacity: 1; stroke-width: 0px; fill: rgb(158, 158, 158); fill-opacity: 1;"/><path class="point" transform="translate(452.24,362.35)" d="M2,0A2,2 0 1,1 0,-2A2,2 0 0,1 2,0Z" style="opacity: 1; stroke-width: 0px; fill: rgb(158, 158, 158); fill-opacity: 1;"/><path class="point" transform="translate(481.11,396)" d="M2,0A2,2 0 1,1 0,-2A2,2 0 0,1 2,0Z" style="opacity: 1; stroke-width: 0px; fill: rgb(158, 158, 158); fill-opacity: 1;"/><path class="point" transform="translate(490.73,362.35)" d="M2,0A2,2 0 1,1 0,-2A2,2 0 0,1 2,0Z" style="opacity: 1; stroke-width: 0px; fill: rgb(158, 158, 158); fill-opacity: 1;"/><path class="point" transform="translate(519.6,396)" d="M2,0A2,2 0 1,1 0,-2A2,2 0 0,1 2,0Z" style="opacity: 1; stroke-width: 0px; fill: rgb(158, 158, 158); fill-opacity: 1;"/><path class="point" transform="translate(529.22,396)" d="M2,0A2,2 0 1,1 0,-2A2,2 0 0,1 2,0Z" style="opacity: 1; stroke-width: 0px; fill: rgb(158, 158, 158); fill-opacity: 1;"/><path class="point" transform="translate(538.84,396)" d="M2,0A2,2 0 1,1 0,-2A2,2 0 0,1 2,0Z" style="opacity: 1; stroke-width: 0px; fill: rgb(158, 158, 158); fill-opacity: 1;"/><path class="point" transform="translate(558.09,396)" d="M2,0A2,2 0 1,1 0,-2A2,2 0 0,1 2,0Z" style="opacity: 1; stroke-width: 0px; fill: rgb(158, 158, 158); fill-opacity: 1;"/><path class="point" transform="translate(577.33,362.35)" d="M2,0A2,2 0 1,1 0,-2A2,2 0 0,1 2,0Z" style="opacity: 1; stroke-width: 0px; fill: rgb(158, 158, 158); fill-opacity: 1;"/><path class="point" transform="translate(750.53,396)" d="M2,0A2,2 0 1,1 0,-2A2,2 0 0,1 2,0Z" style="opacity: 1; stroke-width: 0px; fill: rgb(158, 158, 158); fill-opacity: 1;"/><path class="point" transform="translate(808.27,396)" d="M2,0A2,2 0 1,1 0,-2A2,2 0 0,1 2,0Z" style="opacity: 1; stroke-width: 0px; fill: rgb(158, 158, 158); fill-opacity: 1;"/><path class="point" transform="translate(866,396)" d="M2,0A2,2 0 1,1 0,-2A2,2 0 0,1 2,0Z" style="opacity: 1; stroke-width: 0px; fill: rgb(158, 158, 158); fill-opacity: 1;"/></g><g class="text"/></g><g class="trace scatter trace445cf3" style="stroke-miterlimit: 2;"><g class="fills"><g><path class="js-fill" d="M683.18,4410L0,4410L0,27.52L9.62,93.54L19.24,120.59L28.87,145.27L38.49,162.79L48.11,183.88L57.73,189.07L67.36,206.09L76.98,236L86.6,243.79L96.22,243.79L105.84,241.72L115.47,271.48L125.09,271.48L134.71,255.69L144.33,289.33L153.96,264.54L163.58,284.22L173.2,317.87L182.82,309.02L192.44,309.02L202.07,309.02L211.69,362.35L221.31,342.67L230.93,362.35L250.18,396L259.8,317.87L279.04,396L288.67,396L327.16,396L336.78,362.35L346.4,396L365.64,396L404.13,396L423.38,328.7L471.49,396L490.73,396L683.18,396" style="fill: rgb(196, 163, 90); fill-opacity: 0.2; stroke-width: 0;"/></g></g><g class="errorbars"/><g class="lines"><path class="js-line" d="M0,27.52L9.62,93.54L19.24,120.59L28.87,145.27L38.49,162.79L48.11,183.88L57.73,189.07L67.36,206.09L76.98,236L86.6,243.79L96.22,243.79L105.84,241.72L115.47,271.48L125.09,271.48L134.71,255.69L144.33,289.33L153.96,264.54L163.58,284.22L173.2,317.87L182.82,309.02L192.44,309.02L202.07,309.02L211.69,362.35L221.31,342.67L230.93,362.35L250.18,396L259.8,317.87L279.04,396L288.67,396L327.16,396L336.78,362.35L346.4,396L365.64,396L404.13,396L423.38,328.7L471.49,396L490.73,396L683.18,396" style="vector-effect: none; fill: none; stroke: rgb(196, 163, 90); stroke-opacity: 1; stroke-width: 2px; opacity: 1;"/></g><g class="points"><path class="point" transform="translate(0,27.52)" d="M2,0A2,2 0 1,1 0,-2A2,2 0 0,1 2,0Z" style="opacity: 1; stroke-width: 0px; fill: rgb(196, 163, 90); fill-opacity: 1;"/><path class="point" transform="translate(9.62,93.54)" d="M2,0A2,2 0 1,1 0,-2A2,2 0 0,1 2,0Z" style="opacity: 1; stroke-width: 0px; fill: rgb(196, 163, 90); fill-opacity: 1;"/><path class="point" transform="translate(19.24,120.59)" d="M2,0A2,2 0 1,1 0,-2A2,2 0 0,1 2,0Z" style="opacity: 1; stroke-width: 0px; fill: rgb(196, 163, 90); fill-opacity: 1;"/><path class="point" transform="translate(28.87,145.27)" d="M2,0A2,2 0 1,1 0,-2A2,2 0 0,1 2,0Z" style="opacity: 1; stroke-width: 0px; fill: rgb(196, 163, 90); fill-opacity: 1;"/><path class="point" transform="translate(38.49,162.79)" d="M2,0A2,2 0 1,1 0,-2A2,2 0 0,1 2,0Z" style="opacity: 1; stroke-width: 0px; fill: rgb(196, 163, 90); fill-opacity: 1;"/><path class="point" transform="translate(48.11,183.88)" d="M2,0A2,2 0 1,1 0,-2A2,2 0 0,1 2,0Z" style="opacity: 1; stroke-width: 0px; fill: rgb(196, 163, 90); fill-opacity: 1;"/><path class="point" transform="translate(57.73,189.07)" d="M2,0A2,2 0 1,1 0,-2A2,2 0 0,1 2,0Z" style="opacity: 1; stroke-width: 0px; fill: rgb(196, 163, 90); fill-opacity: 1;"/><path class="point" transform="translate(67.36,206.09)" d="M2,0A2,2 0 1,1 0,-2A2,2 0 0,1 2,0Z" style="opacity: 1; stroke-width: 0px; fill: rgb(196, 163, 90); fill-opacity: 1;"/><path class="point" transform="translate(76.98,236)" d="M2,0A2,2 0 1,1 0,-2A2,2 0 0,1 2,0Z" style="opacity: 1; stroke-width: 0px; fill: rgb(196, 163, 90); fill-opacity: 1;"/><path class="point" transform="translate(86.6,243.79)" d="M2,0A2,2 0 1,1 0,-2A2,2 0 0,1 2,0Z" style="opacity: 1; stroke-width: 0px; fill: rgb(196, 163, 90); fill-opacity: 1;"/><path class="point" transform="translate(96.22,243.79)" d="M2,0A2,2 0 1,1 0,-2A2,2 0 0,1 2,0Z" style="opacity: 1; stroke-width: 0px; fill: rgb(196, 163, 90); fill-opacity: 1;"/><path class="point" transform="translate(105.84,241.72)" d="M2,0A2,2 0 1,1 0,-2A2,2 0 0,1 2,0Z" style="opacity: 1; stroke-width: 0px; fill: rgb(196, 163, 90); fill-opacity: 1;"/><path class="point" transform="translate(115.47,271.48)" d="M2,0A2,2 0 1,1 0,-2A2,2 0 0,1 2,0Z" style="opacity: 1; stroke-width: 0px; fill: rgb(196, 163, 90); fill-opacity: 1;"/><path class="point" transform="translate(125.09,271.48)" d="M2,0A2,2 0 1,1 0,-2A2,2 0 0,1 2,0Z" style="opacity: 1; stroke-width: 0px; fill: rgb(196, 163, 90); fill-opacity: 1;"/><path class="point" transform="translate(134.71,255.69)" d="M2,0A2,2 0 1,1 0,-2A2,2 0 0,1 2,0Z" style="opacity: 1; stroke-width: 0px; fill: rgb(196, 163, 90); fill-opacity: 1;"/><path class="point" transform="translate(144.33,289.33)" d="M2,0A2,2 0 1,1 0,-2A2,2 0 0,1 2,0Z" style="opacity: 1; stroke-width: 0px; fill: rgb(196, 163, 90); fill-opacity: 1;"/><path class="point" transform="translate(153.96,264.54)" d="M2,0A2,2 0 1,1 0,-2A2,2 0 0,1 2,0Z" style="opacity: 1; stroke-width: 0px; fill: rgb(196, 163, 90); fill-opacity: 1;"/><path class="point" transform="translate(163.58,284.22)" d="M2,0A2,2 0 1,1 0,-2A2,2 0 0,1 2,0Z" style="opacity: 1; stroke-width: 0px; fill: rgb(196, 163, 90); fill-opacity: 1;"/><path class="point" transform="translate(173.2,317.87)" d="M2,0A2,2 0 1,1 0,-2A2,2 0 0,1 2,0Z" style="opacity: 1; stroke-width: 0px; fill: rgb(196, 163, 90); fill-opacity: 1;"/><path class="point" transform="translate(182.82,309.02)" d="M2,0A2,2 0 1,1 0,-2A2,2 0 0,1 2,0Z" style="opacity: 1; stroke-width: 0px; fill: rgb(196, 163, 90); fill-opacity: 1;"/><path class="point" transform="translate(192.44,309.02)" d="M2,0A2,2 0 1,1 0,-2A2,2 0 0,1 2,0Z" style="opacity: 1; stroke-width: 0px; fill: rgb(196, 163, 90); fill-opacity: 1;"/><path class="point" transform="translate(202.07,309.02)" d="M2,0A2,2 0 1,1 0,-2A2,2 0 0,1 2,0Z" style="opacity: 1; stroke-width: 0px; fill: rgb(196, 163, 90); fill-opacity: 1;"/><path class="point" transform="translate(211.69,362.35)" d="M2,0A2,2 0 1,1 0,-2A2,2 0 0,1 2,0Z" style="opacity: 1; stroke-width: 0px; fill: rgb(196, 163, 90); fill-opacity: 1;"/><path class="point" transform="translate(221.31,342.67)" d="M2,0A2,2 0 1,1 0,-2A2,2 0 0,1 2,0Z" style="opacity: 1; stroke-width: 0px; fill: rgb(196, 163, 90); fill-opacity: 1;"/><path class="point" transform="translate(230.93,362.35)" d="M2,0A2,2 0 1,1 0,-2A2,2 0 0,1 2,0Z" style="opacity: 1; stroke-width: 0px; fill: rgb(196, 163, 90); fill-opacity: 1;"/><path class="point" transform="translate(250.18,396)" d="M2,0A2,2 0 1,1 0,-2A2,2 0 0,1 2,0Z" style="opacity: 1; stroke-width: 0px; fill: rgb(196, 163, 90); fill-opacity: 1;"/><path class="point" transform="translate(259.8,317.87)" d="M2,0A2,2 0 1,1 0,-2A2,2 0 0,1 2,0Z" style="opacity: 1; stroke-width: 0px; fill: rgb(196, 163, 90); fill-opacity: 1;"/><path class="point" transform="translate(279.04,396)" d="M2,0A2,2 0 1,1 0,-2A2,2 0 0,1 2,0Z" style="opacity: 1; stroke-width: 0px; fill: rgb(196, 163, 90); fill-opacity: 1;"/><path class="point" transform="translate(288.67,396)" d="M2,0A2,2 0 1,1 0,-2A2,2 0 0,1 2,0Z" style="opacity: 1; stroke-width: 0px; fill: rgb(196, 163, 90); fill-opacity: 1;"/><path class="point" transform="translate(298.29,396)" d="M2,0A2,2 0 1,1 0,-2A2,2 0 0,1 2,0Z" style="opacity: 1; stroke-width: 0px; fill: rgb(196, 163, 90); fill-opacity: 1;"/><path class="point" transform="translate(307.91,396)" d="M2,0A2,2 0 1,1 0,-2A2,2 0 0,1 2,0Z" style="opacity: 1; stroke-width: 0px; fill: rgb(196, 163, 90); fill-opacity: 1;"/><path class="point" transform="translate(317.53,396)" d="M2,0A2,2 0 1,1 0,-2A2,2 0 0,1 2,0Z" style="opacity: 1; stroke-width: 0px; fill: rgb(196, 163, 90); fill-opacity: 1;"/><path class="point" transform="translate(327.16,396)" d="M2,0A2,2 0 1,1 0,-2A2,2 0 0,1 2,0Z" style="opacity: 1; stroke-width: 0px; fill: rgb(196, 163, 90); fill-opacity: 1;"/><path class="point" transform="translate(336.78,362.35)" d="M2,0A2,2 0 1,1 0,-2A2,2 0 0,1 2,0Z" style="opacity: 1; stroke-width: 0px; fill: rgb(196, 163, 90); fill-opacity: 1;"/><path class="point" transform="translate(346.4,396)" d="M2,0A2,2 0 1,1 0,-2A2,2 0 0,1 2,0Z" style="opacity: 1; stroke-width: 0px; fill: rgb(196, 163, 90); fill-opacity: 1;"/><path class="point" transform="translate(365.64,396)" d="M2,0A2,2 0 1,1 0,-2A2,2 0 0,1 2,0Z" style="opacity: 1; stroke-width: 0px; fill: rgb(196, 163, 90); fill-opacity: 1;"/><path class="point" transform="translate(375.27,396)" d="M2,0A2,2 0 1,1 0,-2A2,2 0 0,1 2,0Z" style="opacity: 1; stroke-width: 0px; fill: rgb(196, 163, 90); fill-opacity: 1;"/><path class="point" transform="translate(404.13,396)" d="M2,0A2,2 0 1,1 0,-2A2,2 0 0,1 2,0Z" style="opacity: 1; stroke-width: 0px; fill: rgb(196, 163, 90); fill-opacity: 1;"/><path class="point" transform="translate(423.38,328.7)" d="M2,0A2,2 0 1,1 0,-2A2,2 0 0,1 2,0Z" style="opacity: 1; stroke-width: 0px; fill: rgb(196, 163, 90); fill-opacity: 1;"/><path class="point" transform="translate(471.49,396)" d="M2,0A2,2 0 1,1 0,-2A2,2 0 0,1 2,0Z" style="opacity: 1; stroke-width: 0px; fill: rgb(196, 163, 90); fill-opacity: 1;"/><path class="point" transform="translate(490.73,396)" d="M2,0A2,2 0 1,1 0,-2A2,2 0 0,1 2,0Z" style="opacity: 1; stroke-width: 0px; fill: rgb(196, 163, 90); fill-opacity: 1;"/><path class="point" transform="translate(500.36,396)" d="M2,0A2,2 0 1,1 0,-2A2,2 0 0,1 2,0Z" style="opacity: 1; stroke-width: 0px; fill: rgb(196, 163, 90); fill-opacity: 1;"/><path class="point" transform="translate(519.6,396)" d="M2,0A2,2 0 1,1 0,-2A2,2 0 0,1 2,0Z" style="opacity: 1; stroke-width: 0px; fill: rgb(196, 163, 90); fill-opacity: 1;"/><path class="point" transform="translate(683.18,396)" d="M2,0A2,2 0 1,1 0,-2A2,2 0 0,1 2,0Z" style="opacity: 1; stroke-width: 0px; fill: rgb(196, 163, 90); fill-opacity: 1;"/></g><g class="text"/></g><g class="trace scatter trace8faa87" style="stroke-miterlimit: 2;"><g class="fills"><g><path class="js-fill" d="M250.18,4410L0,4410L0,32.51L9.62,108.02L19.24,145.27L28.87,183.27L38.49,204.19L48.11,229.3L57.73,236L67.36,258.46L76.98,295.05L86.6,295.05L96.22,301.54L105.84,328.7L115.47,342.67L125.09,396L134.71,362.35L144.33,396L153.96,362.35L163.58,396L173.2,362.35L202.07,362.35L211.69,396L250.18,396" style="fill: rgb(91, 166, 122); fill-opacity: 0.2; stroke-width: 0;"/></g></g><g class="errorbars"/><g class="lines"><path class="js-line" d="M0,32.51L9.62,108.02L19.24,145.27L28.87,183.27L38.49,204.19L48.11,229.3L57.73,236L67.36,258.46L76.98,295.05L86.6,295.05L96.22,301.54L105.84,328.7L115.47,342.67L125.09,396L134.71,362.35L144.33,396L153.96,362.35L163.58,396L173.2,362.35L202.07,362.35L211.69,396L250.18,396" style="vector-effect: none; fill: none; stroke: rgb(91, 166, 122); stroke-opacity: 1; stroke-width: 2px; opacity: 1;"/></g><g class="points"><path class="point" transform="translate(0,32.51)" d="M2,0A2,2 0 1,1 0,-2A2,2 0 0,1 2,0Z" style="opacity: 1; stroke-width: 0px; fill: rgb(91, 166, 122); fill-opacity: 1;"/><path class="point" transform="translate(9.62,108.02)" d="M2,0A2,2 0 1,1 0,-2A2,2 0 0,1 2,0Z" style="opacity: 1; stroke-width: 0px; fill: rgb(91, 166, 122); fill-opacity: 1;"/><path class="point" transform="translate(19.24,145.27)" d="M2,0A2,2 0 1,1 0,-2A2,2 0 0,1 2,0Z" style="opacity: 1; stroke-width: 0px; fill: rgb(91, 166, 122); fill-opacity: 1;"/><path class="point" transform="translate(28.87,183.27)" d="M2,0A2,2 0 1,1 0,-2A2,2 0 0,1 2,0Z" style="opacity: 1; stroke-width: 0px; fill: rgb(91, 166, 122); fill-opacity: 1;"/><path class="point" transform="translate(38.49,204.19)" d="M2,0A2,2 0 1,1 0,-2A2,2 0 0,1 2,0Z" style="opacity: 1; stroke-width: 0px; fill: rgb(91, 166, 122); fill-opacity: 1;"/><path class="point" transform="translate(48.11,229.3)" d="M2,0A2,2 0 1,1 0,-2A2,2 0 0,1 2,0Z" style="opacity: 1; stroke-width: 0px; fill: rgb(91, 166, 122); fill-opacity: 1;"/><path class="point" transform="translate(57.73,236)" d="M2,0A2,2 0 1,1 0,-2A2,2 0 0,1 2,0Z" style="opacity: 1; stroke-width: 0px; fill: rgb(91, 166, 122); fill-opacity: 1;"/><path class="point" transform="translate(67.36,258.46)" d="M2,0A2,2 0 1,1 0,-2A2,2 0 0,1 2,0Z" style="opacity: 1; stroke-width: 0px; fill: rgb(91, 166, 122); fill-opacity: 1;"/><path class="point" transform="translate(76.98,295.05)" d="M2,0A2,2 0 1,1 0,-2A2,2 0 0,1 2,0Z" style="opacity: 1; stroke-width: 0px; fill: rgb(91, 166, 122); fill-opacity: 1;"/><path class="point" transform="translate(86.6,295.05)" d="M2,0A2,2 0 1,1 0,-2A2,2 0 0,1 2,0Z" style="opacity: 1; stroke-width: 0px; fill: rgb(91, 166, 122); fill-opacity: 1;"/><path class="point" transform="translate(96.22,301.54)" d="M2,0A2,2 0 1,1 0,-2A2,2 0 0,1 2,0Z" style="opacity: 1; stroke-width: 0px; fill: rgb(91, 166, 122); fill-opacity: 1;"/><path class="point" transform="translate(105.84,328.7)" d="M2,0A2,2 0 1,1 0,-2A2,2 0 0,1 2,0Z" style="opacity: 1; stroke-width: 0px; fill: rgb(91, 166, 122); fill-opacity: 1;"/><path class="point" transform="translate(115.47,342.67)" d="M2,0A2,2 0 1,1 0,-2A2,2 0 0,1 2,0Z" style="opacity: 1; stroke-width: 0px; fill: rgb(91, 166, 122); fill-opacity: 1;"/><path class="point" transform="translate(125.09,396)" d="M2,0A2,2 0 1,1 0,-2A2,2 0 0,1 2,0Z" style="opacity: 1; stroke-width: 0px; fill: rgb(91, 166, 122); fill-opacity: 1;"/><path class="point" transform="translate(134.71,362.35)" d="M2,0A2,2 0 1,1 0,-2A2,2 0 0,1 2,0Z" style="opacity: 1; stroke-width: 0px; fill: rgb(91, 166, 122); fill-opacity: 1;"/><path class="point" transform="translate(144.33,396)" d="M2,0A2,2 0 1,1 0,-2A2,2 0 0,1 2,0Z" style="opacity: 1; stroke-width: 0px; fill: rgb(91, 166, 122); fill-opacity: 1;"/><path class="point" transform="translate(153.96,362.35)" d="M2,0A2,2 0 1,1 0,-2A2,2 0 0,1 2,0Z" style="opacity: 1; stroke-width: 0px; fill: rgb(91, 166, 122); fill-opacity: 1;"/><path class="point" transform="translate(163.58,396)" d="M2,0A2,2 0 1,1 0,-2A2,2 0 0,1 2,0Z" style="opacity: 1; stroke-width: 0px; fill: rgb(91, 166, 122); fill-opacity: 1;"/><path class="point" transform="translate(173.2,362.35)" d="M2,0A2,2 0 1,1 0,-2A2,2 0 0,1 2,0Z" style="opacity: 1; stroke-width: 0px; fill: rgb(91, 166, 122); fill-opacity: 1;"/><path class="point" transform="translate(202.07,362.35)" d="M2,0A2,2 0 1,1 0,-2A2,2 0 0,1 2,0Z" style="opacity: 1; stroke-width: 0px; fill: rgb(91, 166, 122); fill-opacity: 1;"/><path class="point" transform="translate(211.69,396)" d="M2,0A2,2 0 1,1 0,-2A2,2 0 0,1 2,0Z" style="opacity: 1; stroke-width: 0px; fill: rgb(91, 166, 122); fill-opacity: 1;"/><path class="point" transform="translate(250.18,396)" d="M2,0A2,2 0 1,1 0,-2A2,2 0 0,1 2,0Z" style="opacity: 1; stroke-width: 0px; fill: rgb(91, 166, 122); fill-opacity: 1;"/></g><g class="text"/></g></g></g></g><g class="zerolinelayer-above"/><path class="xlines-above crisp" d="M0,0" style="fill: none;"/><path class="ylines-above crisp" d="M0,0" style="fill: none;"/><g class="overlines-above"/><g class="xaxislayer-above"><g class="xtick"><text text-anchor="middle" x="0" y="533" transform="translate(108.87,0)" style="font-family: 'Open Sans', verdana, arial, sans-serif; font-size: 12px; fill: rgb(42, 63, 95); fill-opacity: 1; white-space: pre;">5</text></g><g class="xtick"><text text-anchor="middle" x="0" y="533" style="font-family: 'Open Sans', verdana, arial, sans-serif; font-size: 12px; fill: rgb(42, 63, 95); fill-opacity: 1; white-space: pre;" transform="translate(156.98000000000002,0)">10</text></g><g class="xtick"><text text-anchor="middle" x="0" y="533" style="font-family: 'Open Sans', verdana, arial, sans-serif; font-size: 12px; fill: rgb(42, 63, 95); fill-opacity: 1; white-space: pre;" transform="translate(205.09,0)">15</text></g><g class="xtick"><text text-anchor="middle" x="0" y="533" style="font-family: 'Open Sans', verdana, arial, sans-serif; font-size: 12px; fill: rgb(42, 63, 95); fill-opacity: 1; white-space: pre;" transform="translate(253.2,0)">20</text></g><g class="xtick"><text text-anchor="middle" x="0" y="533" style="font-family: 'Open Sans', verdana, arial, sans-serif; font-size: 12px; fill: rgb(42, 63, 95); fill-opacity: 1; white-space: pre;" transform="translate(301.31,0)">25</text></g><g class="xtick"><text text-anchor="middle" x="0" y="533" style="font-family: 'Open Sans', verdana, arial, sans-serif; font-size: 12px; fill: rgb(42, 63, 95); fill-opacity: 1; white-space: pre;" transform="translate(349.42,0)">30</text></g><g class="xtick"><text text-anchor="middle" x="0" y="533" style="font-family: 'Open Sans', verdana, arial, sans-serif; font-size: 12px; fill: rgb(42, 63, 95); fill-opacity: 1; white-space: pre;" transform="translate(397.53,0)">35</text></g><g class="xtick"><text text-anchor="middle" x="0" y="533" style="font-family: 'Open Sans', verdana, arial, sans-serif; font-size: 12px; fill: rgb(42, 63, 95); fill-opacity: 1; white-space: pre;" transform="translate(445.64,0)">40</text></g><g class="xtick"><text text-anchor="middle" x="0" y="533" style="font-family: 'Open Sans', verdana, arial, sans-serif; font-size: 12px; fill: rgb(42, 63, 95); fill-opacity: 1; white-space: pre;" transform="translate(493.76,0)">45</text></g><g class="xtick"><text text-anchor="middle" x="0" y="533" style="font-family: 'Open Sans', verdana, arial, sans-serif; font-size: 12px; fill: rgb(42, 63, 95); fill-opacity: 1; white-space: pre;" transform="translate(541.87,0)">50</text></g><g class="xtick"><text text-anchor="middle" x="0" y="533" style="font-family: 'Open Sans', verdana, arial, sans-serif; font-size: 12px; fill: rgb(42, 63, 95); fill-opacity: 1; white-space: pre;" transform="translate(589.98,0)">55</text></g><g class="xtick"><text text-anchor="middle" x="0" y="533" style="font-family: 'Open Sans', verdana, arial, sans-serif; font-size: 12px; fill: rgb(42, 63, 95); fill-opacity: 1; white-space: pre;" transform="translate(638.09,0)">60</text></g><g class="xtick"><text text-anchor="middle" x="0" y="533" style="font-family: 'Open Sans', verdana, arial, sans-serif; font-size: 12px; fill: rgb(42, 63, 95); fill-opacity: 1; white-space: pre;" transform="translate(686.2,0)">65</text></g><g class="xtick"><text text-anchor="middle" x="0" y="533" style="font-family: 'Open Sans', verdana, arial, sans-serif; font-size: 12px; fill: rgb(42, 63, 95); fill-opacity: 1; white-space: pre;" transform="translate(734.31,0)">70</text></g><g class="xtick"><text text-anchor="middle" x="0" y="533" style="font-family: 'Open Sans', verdana, arial, sans-serif; font-size: 12px; fill: rgb(42, 63, 95); fill-opacity: 1; white-space: pre;" transform="translate(782.42,0)">75</text></g><g class="xtick"><text text-anchor="middle" x="0" y="533" style="font-family: 'Open Sans', verdana, arial, sans-serif; font-size: 12px; fill: rgb(42, 63, 95); fill-opacity: 1; white-space: pre;" transform="translate(830.53,0)">80</text></g><g class="xtick"><text text-anchor="middle" x="0" y="533" style="font-family: 'Open Sans', verdana, arial, sans-serif; font-size: 12px; fill: rgb(42, 63, 95); fill-opacity: 1; white-space: pre;" transform="translate(878.64,0)">85</text></g><g class="xtick"><text text-anchor="middle" x="0" y="533" style="font-family: 'Open Sans', verdana, arial, sans-serif; font-size: 12px; fill: rgb(42, 63, 95); fill-opacity: 1; white-space: pre;" transform="translate(926.76,0)">90</text></g></g><g class="yaxislayer-above"><g class="ytick"><text text-anchor="end" x="79" y="4.199999999999999" transform="translate(0,496)" style="font-family: 'Open Sans', verdana, arial, sans-serif; font-size: 12px; fill: rgb(42, 63, 95); fill-opacity: 1; white-space: pre;">1</text></g><g class="ytick"><text text-anchor="end" x="79" y="4.199999999999999" style="font-family: 'Open Sans', verdana, arial, sans-serif; font-size: 12px; fill: rgb(42, 63, 95); fill-opacity: 1; white-space: pre;" transform="translate(0,384.22)">10</text></g><g class="ytick"><text text-anchor="end" x="79" y="4.199999999999999" style="font-family: 'Open Sans', verdana, arial, sans-serif; font-size: 12px; fill: rgb(42, 63, 95); fill-opacity: 1; white-space: pre;" transform="translate(0,272.44)">100</text></g><g class="ytick"><text text-anchor="end" x="79" y="4.199999999999999" style="font-family: 'Open Sans', verdana, arial, sans-serif; font-size: 12px; fill: rgb(42, 63, 95); fill-opacity: 1; white-space: pre;" transform="translate(0,160.66)">1,000</text></g></g><g class="overaxes-above"/></g></g><g class="polarlayer"/><g class="smithlayer"/><g class="ternarylayer"/><g class="geolayer"/><g class="funnelarealayer"/><g class="pielayer"/><g class="iciclelayer"/><g class="treemaplayer"/><g class="sunburstlayer"/><g class="glimages"/><defs id="topdefs-3454e4"><g class="clips"/><clipPath id="legend3454e4"><rect width="225" height="86" x="0" y="0"/></clipPath></defs><g class="layer-above"><g class="imagelayer"/><g class="shapelayer"/></g><g class="infolayer"><g class="legend" pointer-events="all" transform="translate(963.32,100)"><rect class="bg" shape-rendering="crispEdges" style="stroke: rgb(68, 68, 68); stroke-opacity: 1; fill: rgb(255, 255, 255); fill-opacity: 1; stroke-width: 0px;" width="225" height="86" x="0" y="0"/><g class="scrollbox" transform="" clip-path="url(#legend3454e4)"><text class="legendtitletext" text-anchor="start" x="2" y="18.2" style="font-family: 'Open Sans', verdana, arial, sans-serif; font-size: 14px; fill: rgb(42, 63, 95); fill-opacity: 1; white-space: pre;">Dataset level</text><g class="groups"><g class="traces" transform="translate(0,32.7)" style="opacity: 1;"><text class="legendtext" text-anchor="start" x="40" y="4.680000000000001" style="font-family: 'Open Sans', verdana, arial, sans-serif; font-size: 12px; fill: rgb(42, 63, 95); fill-opacity: 1; white-space: pre;">Genome (n=4,247 families)</text><g class="layers"><g class="legendfill"><path class="js-fill" d="M5,0h30v6h-30z" style="stroke-width: 0; fill: rgb(158, 158, 158); fill-opacity: 0.2;"/></g><g class="legendlines"><path class="js-line" d="M5,0h30" style="fill: none; stroke: rgb(158, 158, 158); stroke-opacity: 1; stroke-width: 2px;"/></g><g class="legendsymbols"><g class="legendpoints"><path class="scatterpts" transform="translate(20,0)" d="M2,0A2,2 0 1,1 0,-2A2,2 0 0,1 2,0Z" style="opacity: 1; stroke-width: 0px; fill: rgb(158, 158, 158); fill-opacity: 1;"/></g></g></g><rect class="legendtoggle" x="0" y="-9.5" width="219.578125" height="19" style="fill: rgb(0, 0, 0); fill-opacity: 0;"/></g><g class="traces" transform="translate(0,51.7)" style="opacity: 1;"><text class="legendtext" text-anchor="start" x="40" y="4.680000000000001" style="font-family: 'Open Sans', verdana, arial, sans-serif; font-size: 12px; fill: rgb(42, 63, 95); fill-opacity: 1; white-space: pre;">Mapped (n=3,507 families)</text><g class="layers"><g class="legendfill"><path class="js-fill" d="M5,0h30v6h-30z" style="stroke-width: 0; fill: rgb(196, 163, 90); fill-opacity: 0.2;"/></g><g class="legendlines"><path class="js-line" d="M5,0h30" style="fill: none; stroke: rgb(196, 163, 90); stroke-opacity: 1; stroke-width: 2px;"/></g><g class="legendsymbols"><g class="legendpoints"><path class="scatterpts" transform="translate(20,0)" d="M2,0A2,2 0 1,1 0,-2A2,2 0 0,1 2,0Z" style="opacity: 1; stroke-width: 0px; fill: rgb(196, 163, 90); fill-opacity: 1;"/></g></g></g><rect class="legendtoggle" x="0" y="-9.5" width="219.578125" height="19" style="fill: rgb(0, 0, 0); fill-opacity: 0;"/></g><g class="traces" transform="translate(0,70.7)" style="opacity: 1;"><text class="legendtext" text-anchor="start" x="40" y="4.680000000000001" style="font-family: 'Open Sans', verdana, arial, sans-serif; font-size: 12px; fill: rgb(42, 63, 95); fill-opacity: 1; white-space: pre;">Expressed (n=2,588 families)</text><g class="layers"><g class="legendfill"><path class="js-fill" d="M5,0h30v6h-30z" style="stroke-width: 0; fill: rgb(91, 166, 122); fill-opacity: 0.2;"/></g><g class="legendlines"><path class="js-line" d="M5,0h30" style="fill: none; stroke: rgb(91, 166, 122); stroke-opacity: 1; stroke-width: 2px;"/></g><g class="legendsymbols"><g class="legendpoints"><path class="scatterpts" transform="translate(20,0)" d="M2,0A2,2 0 1,1 0,-2A2,2 0 0,1 2,0Z" style="opacity: 1; stroke-width: 0px; fill: rgb(91, 166, 122); fill-opacity: 1;"/></g></g></g><rect class="legendtoggle" x="0" y="-9.5" width="219.578125" height="19" style="fill: rgb(0, 0, 0); fill-opacity: 0;"/></g></g></g><rect class="scrollbar" rx="20" ry="3" width="0" height="0" style="fill: rgb(128, 139, 164); fill-opacity: 1;" x="0" y="0"/></g><g class="g-gtitle"><text class="gtitle" x="600" y="50" text-anchor="middle" dy="0em" style="opacity: 1; font-family: 'Open Sans', verdana, arial, sans-serif; font-size: 17px; fill: rgb(42, 63, 95); fill-opacity: 1; white-space: pre;">Gene family size distribution across dataset levels (size ≥ 2)</text></g><g class="g-xtitle"><text class="xtitle" x="513" y="560.3" text-anchor="middle" style="opacity: 1; font-family: 'Open Sans', verdana, arial, sans-serif; font-size: 14px; fill: rgb(42, 63, 95); fill-opacity: 1; white-space: pre;">Gene family size</text></g><g class="g-ytitle"><text class="ytitle" transform="rotate(-90,24.709375,310)" x="24.709375" y="310" text-anchor="middle" style="opacity: 1; font-family: 'Open Sans', verdana, arial, sans-serif; font-size: 14px; fill: rgb(42, 63, 95); fill-opacity: 1; white-space: pre;">Number of gene families (log scale)</text></g></g></svg>